<?xml version="1.0" encoding="utf-8" standalone="no"?>
<!DOCTYPE svg PUBLIC "-//W3C//DTD SVG 1.1//EN"
  "http://www.w3.org/Graphics/SVG/1.1/DTD/svg11.dtd">
<svg height="576pt" version="1.1" viewBox="0 0 864 576" width="864pt" xmlns="http://www.w3.org/2000/svg" xmlns:xlink="http://www.w3.org/1999/xlink">
 <metadata>
  <rdf:RDF xmlns:cc="http://creativecommons.org/ns#" xmlns:dc="http://purl.org/dc/elements/1.1/" xmlns:rdf="http://www.w3.org/1999/02/22-rdf-syntax-ns#">
   <cc:Work>
    <dc:type rdf:resource="http://purl.org/dc/dcmitype/StillImage"/>
    <dc:date>2022-05-19T10:14:28.790323</dc:date>
    <dc:format>image/svg+xml</dc:format>
    <dc:creator>
     <cc:Agent>
      <dc:title>Matplotlib v3.4.3, https://matplotlib.org/</dc:title>
     </cc:Agent>
    </dc:creator>
   </cc:Work>
  </rdf:RDF>
 </metadata>
 <defs>
  <style type="text/css">*{stroke-linecap:butt;stroke-linejoin:round;}</style>
 </defs>
 <g id="figure_1">
  <g id="patch_1">
   <path d="M 0 576 
L 864 576 
L 864 0 
L 0 0 
z
" style="fill:#ffffff;"/>
  </g>
  <g id="axes_1">
   <g id="patch_2">
    <path d="M 56.5375 474.112 
L 840.85 474.112 
L 840.85 26.8 
L 56.5375 26.8 
z
" style="fill:#ffffff;"/>
   </g>
   <g id="matplotlib.axis_1">
    <g id="xtick_1">
     <g id="line2d_1">
      <path clip-path="url(#pca7604e924)" d="M 60.905852 474.112 
L 60.905852 26.8 
" style="fill:none;stroke:#b0b0b0;stroke-linecap:square;stroke-width:0.8;"/>
     </g>
     <g id="line2d_2">
      <defs>
       <path d="M 0 0 
L 0 3.5 
" id="m798467eac5" style="stroke:#000000;stroke-width:0.8;"/>
      </defs>
      <g>
       <use style="stroke:#000000;stroke-width:0.8;" x="60.905852" xlink:href="#m798467eac5" y="474.112"/>
      </g>
     </g>
     <g id="text_1">
      <!-- 0 -->
      <g transform="translate(57.724602 488.710438)scale(0.1 -0.1)">
       <defs>
        <path d="M 2034 4250 
Q 1547 4250 1301 3770 
Q 1056 3291 1056 2328 
Q 1056 1369 1301 889 
Q 1547 409 2034 409 
Q 2525 409 2770 889 
Q 3016 1369 3016 2328 
Q 3016 3291 2770 3770 
Q 2525 4250 2034 4250 
z
M 2034 4750 
Q 2819 4750 3233 4129 
Q 3647 3509 3647 2328 
Q 3647 1150 3233 529 
Q 2819 -91 2034 -91 
Q 1250 -91 836 529 
Q 422 1150 422 2328 
Q 422 3509 836 4129 
Q 1250 4750 2034 4750 
z
" id="DejaVuSans-30" transform="scale(0.015625)"/>
       </defs>
       <use xlink:href="#DejaVuSans-30"/>
      </g>
     </g>
    </g>
    <g id="xtick_2">
     <g id="line2d_3">
      <path clip-path="url(#pca7604e924)" d="M 211.5915 474.112 
L 211.5915 26.8 
" style="fill:none;stroke:#b0b0b0;stroke-linecap:square;stroke-width:0.8;"/>
     </g>
     <g id="line2d_4">
      <g>
       <use style="stroke:#000000;stroke-width:0.8;" x="211.5915" xlink:href="#m798467eac5" y="474.112"/>
      </g>
     </g>
     <g id="text_2">
      <!-- 1 -->
      <g transform="translate(208.41025 488.710438)scale(0.1 -0.1)">
       <defs>
        <path d="M 794 531 
L 1825 531 
L 1825 4091 
L 703 3866 
L 703 4441 
L 1819 4666 
L 2450 4666 
L 2450 531 
L 3481 531 
L 3481 0 
L 794 0 
L 794 531 
z
" id="DejaVuSans-31" transform="scale(0.015625)"/>
       </defs>
       <use xlink:href="#DejaVuSans-31"/>
      </g>
     </g>
    </g>
    <g id="xtick_3">
     <g id="line2d_5">
      <path clip-path="url(#pca7604e924)" d="M 362.277148 474.112 
L 362.277148 26.8 
" style="fill:none;stroke:#b0b0b0;stroke-linecap:square;stroke-width:0.8;"/>
     </g>
     <g id="line2d_6">
      <g>
       <use style="stroke:#000000;stroke-width:0.8;" x="362.277148" xlink:href="#m798467eac5" y="474.112"/>
      </g>
     </g>
     <g id="text_3">
      <!-- 2 -->
      <g transform="translate(359.095898 488.710438)scale(0.1 -0.1)">
       <defs>
        <path d="M 1228 531 
L 3431 531 
L 3431 0 
L 469 0 
L 469 531 
Q 828 903 1448 1529 
Q 2069 2156 2228 2338 
Q 2531 2678 2651 2914 
Q 2772 3150 2772 3378 
Q 2772 3750 2511 3984 
Q 2250 4219 1831 4219 
Q 1534 4219 1204 4116 
Q 875 4013 500 3803 
L 500 4441 
Q 881 4594 1212 4672 
Q 1544 4750 1819 4750 
Q 2544 4750 2975 4387 
Q 3406 4025 3406 3419 
Q 3406 3131 3298 2873 
Q 3191 2616 2906 2266 
Q 2828 2175 2409 1742 
Q 1991 1309 1228 531 
z
" id="DejaVuSans-32" transform="scale(0.015625)"/>
       </defs>
       <use xlink:href="#DejaVuSans-32"/>
      </g>
     </g>
    </g>
    <g id="xtick_4">
     <g id="line2d_7">
      <path clip-path="url(#pca7604e924)" d="M 512.962797 474.112 
L 512.962797 26.8 
" style="fill:none;stroke:#b0b0b0;stroke-linecap:square;stroke-width:0.8;"/>
     </g>
     <g id="line2d_8">
      <g>
       <use style="stroke:#000000;stroke-width:0.8;" x="512.962797" xlink:href="#m798467eac5" y="474.112"/>
      </g>
     </g>
     <g id="text_4">
      <!-- 3 -->
      <g transform="translate(509.781547 488.710438)scale(0.1 -0.1)">
       <defs>
        <path d="M 2597 2516 
Q 3050 2419 3304 2112 
Q 3559 1806 3559 1356 
Q 3559 666 3084 287 
Q 2609 -91 1734 -91 
Q 1441 -91 1130 -33 
Q 819 25 488 141 
L 488 750 
Q 750 597 1062 519 
Q 1375 441 1716 441 
Q 2309 441 2620 675 
Q 2931 909 2931 1356 
Q 2931 1769 2642 2001 
Q 2353 2234 1838 2234 
L 1294 2234 
L 1294 2753 
L 1863 2753 
Q 2328 2753 2575 2939 
Q 2822 3125 2822 3475 
Q 2822 3834 2567 4026 
Q 2313 4219 1838 4219 
Q 1578 4219 1281 4162 
Q 984 4106 628 3988 
L 628 4550 
Q 988 4650 1302 4700 
Q 1616 4750 1894 4750 
Q 2613 4750 3031 4423 
Q 3450 4097 3450 3541 
Q 3450 3153 3228 2886 
Q 3006 2619 2597 2516 
z
" id="DejaVuSans-33" transform="scale(0.015625)"/>
       </defs>
       <use xlink:href="#DejaVuSans-33"/>
      </g>
     </g>
    </g>
    <g id="xtick_5">
     <g id="line2d_9">
      <path clip-path="url(#pca7604e924)" d="M 663.648445 474.112 
L 663.648445 26.8 
" style="fill:none;stroke:#b0b0b0;stroke-linecap:square;stroke-width:0.8;"/>
     </g>
     <g id="line2d_10">
      <g>
       <use style="stroke:#000000;stroke-width:0.8;" x="663.648445" xlink:href="#m798467eac5" y="474.112"/>
      </g>
     </g>
     <g id="text_5">
      <!-- 4 -->
      <g transform="translate(660.467195 488.710438)scale(0.1 -0.1)">
       <defs>
        <path d="M 2419 4116 
L 825 1625 
L 2419 1625 
L 2419 4116 
z
M 2253 4666 
L 3047 4666 
L 3047 1625 
L 3713 1625 
L 3713 1100 
L 3047 1100 
L 3047 0 
L 2419 0 
L 2419 1100 
L 313 1100 
L 313 1709 
L 2253 4666 
z
" id="DejaVuSans-34" transform="scale(0.015625)"/>
       </defs>
       <use xlink:href="#DejaVuSans-34"/>
      </g>
     </g>
    </g>
    <g id="xtick_6">
     <g id="line2d_11">
      <path clip-path="url(#pca7604e924)" d="M 814.334093 474.112 
L 814.334093 26.8 
" style="fill:none;stroke:#b0b0b0;stroke-linecap:square;stroke-width:0.8;"/>
     </g>
     <g id="line2d_12">
      <g>
       <use style="stroke:#000000;stroke-width:0.8;" x="814.334093" xlink:href="#m798467eac5" y="474.112"/>
      </g>
     </g>
     <g id="text_6">
      <!-- 5 -->
      <g transform="translate(811.152843 488.710438)scale(0.1 -0.1)">
       <defs>
        <path d="M 691 4666 
L 3169 4666 
L 3169 4134 
L 1269 4134 
L 1269 2991 
Q 1406 3038 1543 3061 
Q 1681 3084 1819 3084 
Q 2600 3084 3056 2656 
Q 3513 2228 3513 1497 
Q 3513 744 3044 326 
Q 2575 -91 1722 -91 
Q 1428 -91 1123 -41 
Q 819 9 494 109 
L 494 744 
Q 775 591 1075 516 
Q 1375 441 1709 441 
Q 2250 441 2565 725 
Q 2881 1009 2881 1497 
Q 2881 1984 2565 2268 
Q 2250 2553 1709 2553 
Q 1456 2553 1204 2497 
Q 953 2441 691 2322 
L 691 4666 
z
" id="DejaVuSans-35" transform="scale(0.015625)"/>
       </defs>
       <use xlink:href="#DejaVuSans-35"/>
      </g>
     </g>
    </g>
    <g id="text_7">
     <!-- Livello idrometrico h [m] -->
     <g transform="translate(387.211719 502.388563)scale(0.1 -0.1)">
      <defs>
       <path d="M 628 4666 
L 1259 4666 
L 1259 531 
L 3531 531 
L 3531 0 
L 628 0 
L 628 4666 
z
" id="DejaVuSans-4c" transform="scale(0.015625)"/>
       <path d="M 603 3500 
L 1178 3500 
L 1178 0 
L 603 0 
L 603 3500 
z
M 603 4863 
L 1178 4863 
L 1178 4134 
L 603 4134 
L 603 4863 
z
" id="DejaVuSans-69" transform="scale(0.015625)"/>
       <path d="M 191 3500 
L 800 3500 
L 1894 563 
L 2988 3500 
L 3597 3500 
L 2284 0 
L 1503 0 
L 191 3500 
z
" id="DejaVuSans-76" transform="scale(0.015625)"/>
       <path d="M 3597 1894 
L 3597 1613 
L 953 1613 
Q 991 1019 1311 708 
Q 1631 397 2203 397 
Q 2534 397 2845 478 
Q 3156 559 3463 722 
L 3463 178 
Q 3153 47 2828 -22 
Q 2503 -91 2169 -91 
Q 1331 -91 842 396 
Q 353 884 353 1716 
Q 353 2575 817 3079 
Q 1281 3584 2069 3584 
Q 2775 3584 3186 3129 
Q 3597 2675 3597 1894 
z
M 3022 2063 
Q 3016 2534 2758 2815 
Q 2500 3097 2075 3097 
Q 1594 3097 1305 2825 
Q 1016 2553 972 2059 
L 3022 2063 
z
" id="DejaVuSans-65" transform="scale(0.015625)"/>
       <path d="M 603 4863 
L 1178 4863 
L 1178 0 
L 603 0 
L 603 4863 
z
" id="DejaVuSans-6c" transform="scale(0.015625)"/>
       <path d="M 1959 3097 
Q 1497 3097 1228 2736 
Q 959 2375 959 1747 
Q 959 1119 1226 758 
Q 1494 397 1959 397 
Q 2419 397 2687 759 
Q 2956 1122 2956 1747 
Q 2956 2369 2687 2733 
Q 2419 3097 1959 3097 
z
M 1959 3584 
Q 2709 3584 3137 3096 
Q 3566 2609 3566 1747 
Q 3566 888 3137 398 
Q 2709 -91 1959 -91 
Q 1206 -91 779 398 
Q 353 888 353 1747 
Q 353 2609 779 3096 
Q 1206 3584 1959 3584 
z
" id="DejaVuSans-6f" transform="scale(0.015625)"/>
       <path id="DejaVuSans-20" transform="scale(0.015625)"/>
       <path d="M 2906 2969 
L 2906 4863 
L 3481 4863 
L 3481 0 
L 2906 0 
L 2906 525 
Q 2725 213 2448 61 
Q 2172 -91 1784 -91 
Q 1150 -91 751 415 
Q 353 922 353 1747 
Q 353 2572 751 3078 
Q 1150 3584 1784 3584 
Q 2172 3584 2448 3432 
Q 2725 3281 2906 2969 
z
M 947 1747 
Q 947 1113 1208 752 
Q 1469 391 1925 391 
Q 2381 391 2643 752 
Q 2906 1113 2906 1747 
Q 2906 2381 2643 2742 
Q 2381 3103 1925 3103 
Q 1469 3103 1208 2742 
Q 947 2381 947 1747 
z
" id="DejaVuSans-64" transform="scale(0.015625)"/>
       <path d="M 2631 2963 
Q 2534 3019 2420 3045 
Q 2306 3072 2169 3072 
Q 1681 3072 1420 2755 
Q 1159 2438 1159 1844 
L 1159 0 
L 581 0 
L 581 3500 
L 1159 3500 
L 1159 2956 
Q 1341 3275 1631 3429 
Q 1922 3584 2338 3584 
Q 2397 3584 2469 3576 
Q 2541 3569 2628 3553 
L 2631 2963 
z
" id="DejaVuSans-72" transform="scale(0.015625)"/>
       <path d="M 3328 2828 
Q 3544 3216 3844 3400 
Q 4144 3584 4550 3584 
Q 5097 3584 5394 3201 
Q 5691 2819 5691 2113 
L 5691 0 
L 5113 0 
L 5113 2094 
Q 5113 2597 4934 2840 
Q 4756 3084 4391 3084 
Q 3944 3084 3684 2787 
Q 3425 2491 3425 1978 
L 3425 0 
L 2847 0 
L 2847 2094 
Q 2847 2600 2669 2842 
Q 2491 3084 2119 3084 
Q 1678 3084 1418 2786 
Q 1159 2488 1159 1978 
L 1159 0 
L 581 0 
L 581 3500 
L 1159 3500 
L 1159 2956 
Q 1356 3278 1631 3431 
Q 1906 3584 2284 3584 
Q 2666 3584 2933 3390 
Q 3200 3197 3328 2828 
z
" id="DejaVuSans-6d" transform="scale(0.015625)"/>
       <path d="M 1172 4494 
L 1172 3500 
L 2356 3500 
L 2356 3053 
L 1172 3053 
L 1172 1153 
Q 1172 725 1289 603 
Q 1406 481 1766 481 
L 2356 481 
L 2356 0 
L 1766 0 
Q 1100 0 847 248 
Q 594 497 594 1153 
L 594 3053 
L 172 3053 
L 172 3500 
L 594 3500 
L 594 4494 
L 1172 4494 
z
" id="DejaVuSans-74" transform="scale(0.015625)"/>
       <path d="M 3122 3366 
L 3122 2828 
Q 2878 2963 2633 3030 
Q 2388 3097 2138 3097 
Q 1578 3097 1268 2742 
Q 959 2388 959 1747 
Q 959 1106 1268 751 
Q 1578 397 2138 397 
Q 2388 397 2633 464 
Q 2878 531 3122 666 
L 3122 134 
Q 2881 22 2623 -34 
Q 2366 -91 2075 -91 
Q 1284 -91 818 406 
Q 353 903 353 1747 
Q 353 2603 823 3093 
Q 1294 3584 2113 3584 
Q 2378 3584 2631 3529 
Q 2884 3475 3122 3366 
z
" id="DejaVuSans-63" transform="scale(0.015625)"/>
       <path d="M 3513 2113 
L 3513 0 
L 2938 0 
L 2938 2094 
Q 2938 2591 2744 2837 
Q 2550 3084 2163 3084 
Q 1697 3084 1428 2787 
Q 1159 2491 1159 1978 
L 1159 0 
L 581 0 
L 581 4863 
L 1159 4863 
L 1159 2956 
Q 1366 3272 1645 3428 
Q 1925 3584 2291 3584 
Q 2894 3584 3203 3211 
Q 3513 2838 3513 2113 
z
" id="DejaVuSans-68" transform="scale(0.015625)"/>
       <path d="M 550 4863 
L 1875 4863 
L 1875 4416 
L 1125 4416 
L 1125 -397 
L 1875 -397 
L 1875 -844 
L 550 -844 
L 550 4863 
z
" id="DejaVuSans-5b" transform="scale(0.015625)"/>
       <path d="M 1947 4863 
L 1947 -844 
L 622 -844 
L 622 -397 
L 1369 -397 
L 1369 4416 
L 622 4416 
L 622 4863 
L 1947 4863 
z
" id="DejaVuSans-5d" transform="scale(0.015625)"/>
      </defs>
      <use xlink:href="#DejaVuSans-4c"/>
      <use x="55.712891" xlink:href="#DejaVuSans-69"/>
      <use x="83.496094" xlink:href="#DejaVuSans-76"/>
      <use x="142.675781" xlink:href="#DejaVuSans-65"/>
      <use x="204.199219" xlink:href="#DejaVuSans-6c"/>
      <use x="231.982422" xlink:href="#DejaVuSans-6c"/>
      <use x="259.765625" xlink:href="#DejaVuSans-6f"/>
      <use x="320.947266" xlink:href="#DejaVuSans-20"/>
      <use x="352.734375" xlink:href="#DejaVuSans-69"/>
      <use x="380.517578" xlink:href="#DejaVuSans-64"/>
      <use x="443.994141" xlink:href="#DejaVuSans-72"/>
      <use x="482.857422" xlink:href="#DejaVuSans-6f"/>
      <use x="544.039062" xlink:href="#DejaVuSans-6d"/>
      <use x="641.451172" xlink:href="#DejaVuSans-65"/>
      <use x="702.974609" xlink:href="#DejaVuSans-74"/>
      <use x="742.183594" xlink:href="#DejaVuSans-72"/>
      <use x="783.296875" xlink:href="#DejaVuSans-69"/>
      <use x="811.080078" xlink:href="#DejaVuSans-63"/>
      <use x="866.060547" xlink:href="#DejaVuSans-6f"/>
      <use x="927.242188" xlink:href="#DejaVuSans-20"/>
      <use x="959.029297" xlink:href="#DejaVuSans-68"/>
      <use x="1022.408203" xlink:href="#DejaVuSans-20"/>
      <use x="1054.195312" xlink:href="#DejaVuSans-5b"/>
      <use x="1093.208984" xlink:href="#DejaVuSans-6d"/>
      <use x="1190.621094" xlink:href="#DejaVuSans-5d"/>
     </g>
    </g>
   </g>
   <g id="matplotlib.axis_2">
    <g id="ytick_1">
     <g id="line2d_13">
      <path clip-path="url(#pca7604e924)" d="M 56.5375 462.230749 
L 840.85 462.230749 
" style="fill:none;stroke:#b0b0b0;stroke-linecap:square;stroke-width:0.8;"/>
     </g>
     <g id="line2d_14">
      <defs>
       <path d="M 0 0 
L -3.5 0 
" id="m74ded165f3" style="stroke:#000000;stroke-width:0.8;"/>
      </defs>
      <g>
       <use style="stroke:#000000;stroke-width:0.8;" x="56.5375" xlink:href="#m74ded165f3" y="462.230749"/>
      </g>
     </g>
     <g id="text_8">
      <!-- 0 -->
      <g transform="translate(43.175 466.029968)scale(0.1 -0.1)">
       <use xlink:href="#DejaVuSans-30"/>
      </g>
     </g>
    </g>
    <g id="ytick_2">
     <g id="line2d_15">
      <path clip-path="url(#pca7604e924)" d="M 56.5375 402.824493 
L 840.85 402.824493 
" style="fill:none;stroke:#b0b0b0;stroke-linecap:square;stroke-width:0.8;"/>
     </g>
     <g id="line2d_16">
      <g>
       <use style="stroke:#000000;stroke-width:0.8;" x="56.5375" xlink:href="#m74ded165f3" y="402.824493"/>
      </g>
     </g>
     <g id="text_9">
      <!-- 25 -->
      <g transform="translate(36.8125 406.623711)scale(0.1 -0.1)">
       <use xlink:href="#DejaVuSans-32"/>
       <use x="63.623047" xlink:href="#DejaVuSans-35"/>
      </g>
     </g>
    </g>
    <g id="ytick_3">
     <g id="line2d_17">
      <path clip-path="url(#pca7604e924)" d="M 56.5375 343.418236 
L 840.85 343.418236 
" style="fill:none;stroke:#b0b0b0;stroke-linecap:square;stroke-width:0.8;"/>
     </g>
     <g id="line2d_18">
      <g>
       <use style="stroke:#000000;stroke-width:0.8;" x="56.5375" xlink:href="#m74ded165f3" y="343.418236"/>
      </g>
     </g>
     <g id="text_10">
      <!-- 50 -->
      <g transform="translate(36.8125 347.217455)scale(0.1 -0.1)">
       <use xlink:href="#DejaVuSans-35"/>
       <use x="63.623047" xlink:href="#DejaVuSans-30"/>
      </g>
     </g>
    </g>
    <g id="ytick_4">
     <g id="line2d_19">
      <path clip-path="url(#pca7604e924)" d="M 56.5375 284.01198 
L 840.85 284.01198 
" style="fill:none;stroke:#b0b0b0;stroke-linecap:square;stroke-width:0.8;"/>
     </g>
     <g id="line2d_20">
      <g>
       <use style="stroke:#000000;stroke-width:0.8;" x="56.5375" xlink:href="#m74ded165f3" y="284.01198"/>
      </g>
     </g>
     <g id="text_11">
      <!-- 75 -->
      <g transform="translate(36.8125 287.811199)scale(0.1 -0.1)">
       <defs>
        <path d="M 525 4666 
L 3525 4666 
L 3525 4397 
L 1831 0 
L 1172 0 
L 2766 4134 
L 525 4134 
L 525 4666 
z
" id="DejaVuSans-37" transform="scale(0.015625)"/>
       </defs>
       <use xlink:href="#DejaVuSans-37"/>
       <use x="63.623047" xlink:href="#DejaVuSans-35"/>
      </g>
     </g>
    </g>
    <g id="ytick_5">
     <g id="line2d_21">
      <path clip-path="url(#pca7604e924)" d="M 56.5375 224.605724 
L 840.85 224.605724 
" style="fill:none;stroke:#b0b0b0;stroke-linecap:square;stroke-width:0.8;"/>
     </g>
     <g id="line2d_22">
      <g>
       <use style="stroke:#000000;stroke-width:0.8;" x="56.5375" xlink:href="#m74ded165f3" y="224.605724"/>
      </g>
     </g>
     <g id="text_12">
      <!-- 100 -->
      <g transform="translate(30.45 228.404943)scale(0.1 -0.1)">
       <use xlink:href="#DejaVuSans-31"/>
       <use x="63.623047" xlink:href="#DejaVuSans-30"/>
       <use x="127.246094" xlink:href="#DejaVuSans-30"/>
      </g>
     </g>
    </g>
    <g id="ytick_6">
     <g id="line2d_23">
      <path clip-path="url(#pca7604e924)" d="M 56.5375 165.199468 
L 840.85 165.199468 
" style="fill:none;stroke:#b0b0b0;stroke-linecap:square;stroke-width:0.8;"/>
     </g>
     <g id="line2d_24">
      <g>
       <use style="stroke:#000000;stroke-width:0.8;" x="56.5375" xlink:href="#m74ded165f3" y="165.199468"/>
      </g>
     </g>
     <g id="text_13">
      <!-- 125 -->
      <g transform="translate(30.45 168.998687)scale(0.1 -0.1)">
       <use xlink:href="#DejaVuSans-31"/>
       <use x="63.623047" xlink:href="#DejaVuSans-32"/>
       <use x="127.246094" xlink:href="#DejaVuSans-35"/>
      </g>
     </g>
    </g>
    <g id="ytick_7">
     <g id="line2d_25">
      <path clip-path="url(#pca7604e924)" d="M 56.5375 105.793212 
L 840.85 105.793212 
" style="fill:none;stroke:#b0b0b0;stroke-linecap:square;stroke-width:0.8;"/>
     </g>
     <g id="line2d_26">
      <g>
       <use style="stroke:#000000;stroke-width:0.8;" x="56.5375" xlink:href="#m74ded165f3" y="105.793212"/>
      </g>
     </g>
     <g id="text_14">
      <!-- 150 -->
      <g transform="translate(30.45 109.59243)scale(0.1 -0.1)">
       <use xlink:href="#DejaVuSans-31"/>
       <use x="63.623047" xlink:href="#DejaVuSans-35"/>
       <use x="127.246094" xlink:href="#DejaVuSans-30"/>
      </g>
     </g>
    </g>
    <g id="ytick_8">
     <g id="line2d_27">
      <path clip-path="url(#pca7604e924)" d="M 56.5375 46.386956 
L 840.85 46.386956 
" style="fill:none;stroke:#b0b0b0;stroke-linecap:square;stroke-width:0.8;"/>
     </g>
     <g id="line2d_28">
      <g>
       <use style="stroke:#000000;stroke-width:0.8;" x="56.5375" xlink:href="#m74ded165f3" y="46.386956"/>
      </g>
     </g>
     <g id="text_15">
      <!-- 175 -->
      <g transform="translate(30.45 50.186174)scale(0.1 -0.1)">
       <use xlink:href="#DejaVuSans-31"/>
       <use x="63.623047" xlink:href="#DejaVuSans-37"/>
       <use x="127.246094" xlink:href="#DejaVuSans-35"/>
      </g>
     </g>
    </g>
    <g id="text_16">
     <!-- $Portate \quad Q \quad [m^3/s]$ -->
     <g transform="translate(24.370313 298.006)rotate(-90)scale(0.1 -0.1)">
      <defs>
       <path d="M 1081 4666 
L 2541 4666 
Q 3178 4666 3512 4369 
Q 3847 4072 3847 3500 
Q 3847 2731 3353 2303 
Q 2859 1875 1966 1875 
L 1172 1875 
L 806 0 
L 172 0 
L 1081 4666 
z
M 1613 4147 
L 1275 2394 
L 2069 2394 
Q 2606 2394 2893 2669 
Q 3181 2944 3181 3456 
Q 3181 3784 2986 3965 
Q 2791 4147 2438 4147 
L 1613 4147 
z
" id="DejaVuSans-Oblique-50" transform="scale(0.015625)"/>
       <path d="M 1625 -91 
Q 1009 -91 651 289 
Q 294 669 294 1325 
Q 294 1706 417 2101 
Q 541 2497 738 2766 
Q 1047 3184 1428 3384 
Q 1809 3584 2291 3584 
Q 2888 3584 3255 3212 
Q 3622 2841 3622 2241 
Q 3622 1825 3500 1412 
Q 3378 1000 3181 728 
Q 2875 309 2494 109 
Q 2113 -91 1625 -91 
z
M 891 1344 
Q 891 869 1089 633 
Q 1288 397 1691 397 
Q 2269 397 2648 901 
Q 3028 1406 3028 2181 
Q 3028 2634 2825 2865 
Q 2622 3097 2228 3097 
Q 1903 3097 1650 2945 
Q 1397 2794 1197 2484 
Q 1050 2253 970 1956 
Q 891 1659 891 1344 
z
" id="DejaVuSans-Oblique-6f" transform="scale(0.015625)"/>
       <path d="M 2853 2969 
Q 2766 3016 2653 3041 
Q 2541 3066 2413 3066 
Q 1953 3066 1609 2717 
Q 1266 2369 1153 1784 
L 800 0 
L 225 0 
L 909 3500 
L 1484 3500 
L 1375 2956 
Q 1603 3259 1920 3421 
Q 2238 3584 2597 3584 
Q 2691 3584 2781 3573 
Q 2872 3563 2963 3538 
L 2853 2969 
z
" id="DejaVuSans-Oblique-72" transform="scale(0.015625)"/>
       <path d="M 2706 3500 
L 2619 3053 
L 1472 3053 
L 1100 1153 
Q 1081 1047 1072 975 
Q 1063 903 1063 863 
Q 1063 663 1183 572 
Q 1303 481 1569 481 
L 2150 481 
L 2053 0 
L 1503 0 
Q 991 0 739 200 
Q 488 400 488 806 
Q 488 878 497 964 
Q 506 1050 525 1153 
L 897 3053 
L 409 3053 
L 500 3500 
L 978 3500 
L 1172 4494 
L 1747 4494 
L 1556 3500 
L 2706 3500 
z
" id="DejaVuSans-Oblique-74" transform="scale(0.015625)"/>
       <path d="M 3438 1997 
L 3047 0 
L 2472 0 
L 2578 531 
Q 2325 219 2001 64 
Q 1678 -91 1281 -91 
Q 834 -91 548 182 
Q 263 456 263 884 
Q 263 1497 752 1853 
Q 1241 2209 2100 2209 
L 2900 2209 
L 2931 2363 
Q 2938 2388 2941 2417 
Q 2944 2447 2944 2509 
Q 2944 2788 2717 2942 
Q 2491 3097 2081 3097 
Q 1800 3097 1504 3025 
Q 1209 2953 897 2809 
L 997 3341 
Q 1322 3463 1633 3523 
Q 1944 3584 2234 3584 
Q 2853 3584 3176 3315 
Q 3500 3047 3500 2534 
Q 3500 2431 3484 2292 
Q 3469 2153 3438 1997 
z
M 2816 1759 
L 2241 1759 
Q 1534 1759 1195 1570 
Q 856 1381 856 984 
Q 856 709 1029 553 
Q 1203 397 1509 397 
Q 1978 397 2328 733 
Q 2678 1069 2791 1631 
L 2816 1759 
z
" id="DejaVuSans-Oblique-61" transform="scale(0.015625)"/>
       <path d="M 3078 2063 
Q 3088 2113 3092 2166 
Q 3097 2219 3097 2272 
Q 3097 2653 2873 2875 
Q 2650 3097 2266 3097 
Q 1838 3097 1509 2826 
Q 1181 2556 1013 2059 
L 3078 2063 
z
M 3578 1613 
L 903 1613 
Q 884 1494 878 1425 
Q 872 1356 872 1306 
Q 872 872 1139 634 
Q 1406 397 1894 397 
Q 2269 397 2603 481 
Q 2938 566 3225 728 
L 3116 159 
Q 2806 34 2476 -28 
Q 2147 -91 1806 -91 
Q 1078 -91 686 257 
Q 294 606 294 1247 
Q 294 1794 489 2264 
Q 684 2734 1063 3103 
Q 1306 3334 1642 3459 
Q 1978 3584 2356 3584 
Q 2950 3584 3301 3228 
Q 3653 2872 3653 2272 
Q 3653 2128 3634 1964 
Q 3616 1800 3578 1613 
z
" id="DejaVuSans-Oblique-65" transform="scale(0.015625)"/>
       <path d="M 2309 -84 
Q 2275 -88 2237 -89 
Q 2200 -91 2125 -91 
Q 1250 -91 756 411 
Q 263 913 263 1797 
Q 263 2319 452 2844 
Q 641 3369 978 3788 
Q 1369 4269 1858 4509 
Q 2347 4750 2938 4750 
Q 3794 4750 4287 4245 
Q 4781 3741 4781 2869 
Q 4781 1928 4265 1147 
Q 3750 366 2919 44 
L 3553 -825 
L 2847 -825 
L 2309 -84 
z
M 2919 4238 
Q 2400 4238 2003 3986 
Q 1606 3734 1313 3219 
Q 1125 2891 1026 2522 
Q 928 2153 928 1778 
Q 928 1128 1239 775 
Q 1550 422 2119 422 
Q 2631 422 3032 676 
Q 3434 931 3719 1434 
Q 3909 1772 4009 2142 
Q 4109 2513 4109 2881 
Q 4109 3528 3796 3883 
Q 3484 4238 2919 4238 
z
" id="DejaVuSans-Oblique-51" transform="scale(0.015625)"/>
       <path d="M 5747 2113 
L 5338 0 
L 4763 0 
L 5166 2094 
Q 5191 2228 5203 2325 
Q 5216 2422 5216 2491 
Q 5216 2772 5059 2928 
Q 4903 3084 4622 3084 
Q 4203 3084 3875 2770 
Q 3547 2456 3450 1953 
L 3066 0 
L 2491 0 
L 2900 2094 
Q 2925 2209 2937 2307 
Q 2950 2406 2950 2484 
Q 2950 2769 2794 2926 
Q 2638 3084 2363 3084 
Q 1938 3084 1609 2770 
Q 1281 2456 1184 1953 
L 800 0 
L 225 0 
L 909 3500 
L 1484 3500 
L 1375 2956 
Q 1609 3263 1923 3423 
Q 2238 3584 2597 3584 
Q 2978 3584 3223 3384 
Q 3469 3184 3519 2828 
Q 3781 3197 4126 3390 
Q 4472 3584 4856 3584 
Q 5306 3584 5551 3325 
Q 5797 3066 5797 2591 
Q 5797 2488 5784 2364 
Q 5772 2241 5747 2113 
z
" id="DejaVuSans-Oblique-6d" transform="scale(0.015625)"/>
       <path d="M 1625 4666 
L 2156 4666 
L 531 -594 
L 0 -594 
L 1625 4666 
z
" id="DejaVuSans-2f" transform="scale(0.015625)"/>
       <path d="M 3200 3397 
L 3091 2853 
Q 2863 2978 2609 3040 
Q 2356 3103 2088 3103 
Q 1634 3103 1373 2948 
Q 1113 2794 1113 2528 
Q 1113 2219 1719 2053 
Q 1766 2041 1788 2034 
L 1972 1978 
Q 2547 1819 2739 1644 
Q 2931 1469 2931 1166 
Q 2931 609 2489 259 
Q 2047 -91 1331 -91 
Q 1053 -91 747 -37 
Q 441 16 72 128 
L 184 722 
Q 500 559 806 475 
Q 1113 391 1394 391 
Q 1816 391 2080 572 
Q 2344 753 2344 1031 
Q 2344 1331 1650 1516 
L 1591 1531 
L 1394 1581 
Q 956 1697 753 1886 
Q 550 2075 550 2369 
Q 550 2928 970 3256 
Q 1391 3584 2113 3584 
Q 2397 3584 2667 3537 
Q 2938 3491 3200 3397 
z
" id="DejaVuSans-Oblique-73" transform="scale(0.015625)"/>
      </defs>
      <use transform="translate(0 0.765625)" xlink:href="#DejaVuSans-Oblique-50"/>
      <use transform="translate(60.302734 0.765625)" xlink:href="#DejaVuSans-Oblique-6f"/>
      <use transform="translate(121.484375 0.765625)" xlink:href="#DejaVuSans-Oblique-72"/>
      <use transform="translate(162.597656 0.765625)" xlink:href="#DejaVuSans-Oblique-74"/>
      <use transform="translate(201.806641 0.765625)" xlink:href="#DejaVuSans-Oblique-61"/>
      <use transform="translate(263.085938 0.765625)" xlink:href="#DejaVuSans-Oblique-74"/>
      <use transform="translate(302.294922 0.765625)" xlink:href="#DejaVuSans-Oblique-65"/>
      <use transform="translate(461.230469 0.765625)" xlink:href="#DejaVuSans-Oblique-51"/>
      <use transform="translate(637.353516 0.765625)" xlink:href="#DejaVuSans-5b"/>
      <use transform="translate(676.367188 0.765625)" xlink:href="#DejaVuSans-Oblique-6d"/>
      <use transform="translate(778.429193 39.046875)scale(0.7)" xlink:href="#DejaVuSans-33"/>
      <use transform="translate(825.699701 0.765625)" xlink:href="#DejaVuSans-2f"/>
      <use transform="translate(859.391107 0.765625)" xlink:href="#DejaVuSans-Oblique-73"/>
      <use transform="translate(911.490716 0.765625)" xlink:href="#DejaVuSans-5d"/>
     </g>
    </g>
   </g>
   <g id="LineCollection_1">
    <path clip-path="url(#pca7604e924)" d="M 256.703672 509.755754 
L 256.703672 -1 
" style="fill:none;stroke:#ff0000;stroke-dasharray:7.4,3.2;stroke-dashoffset:0;stroke-width:2;"/>
   </g>
   <g id="line2d_29">
    <defs>
     <path d="M 0 3 
C 0.795609 3 1.55874 2.683901 2.12132 2.12132 
C 2.683901 1.55874 3 0.795609 3 0 
C 3 -0.795609 2.683901 -1.55874 2.12132 -2.12132 
C 1.55874 -2.683901 0.795609 -3 0 -3 
C -0.795609 -3 -1.55874 -2.683901 -2.12132 -2.12132 
C -2.683901 -1.55874 -3 -0.795609 -3 0 
C -3 0.795609 -2.683901 1.55874 -2.12132 2.12132 
C -1.55874 2.683901 -0.795609 3 0 3 
z
" id="m9dca8f3046" style="stroke:#0000ff;"/>
    </defs>
    <g clip-path="url(#pca7604e924)">
     <use style="fill:#0000ff;stroke:#0000ff;" x="124.193824" xlink:href="#m9dca8f3046" y="461.410942"/>
     <use style="fill:#0000ff;stroke:#0000ff;" x="149.810384" xlink:href="#m9dca8f3046" y="459.281822"/>
     <use style="fill:#0000ff;stroke:#0000ff;" x="169.70089" xlink:href="#m9dca8f3046" y="455.363386"/>
     <use style="fill:#0000ff;stroke:#0000ff;" x="198.029792" xlink:href="#m9dca8f3046" y="450.254448"/>
     <use style="fill:#0000ff;stroke:#0000ff;" x="211.5915" xlink:href="#m9dca8f3046" y="442.536387"/>
     <use style="fill:#0000ff;stroke:#0000ff;" x="225.906637" xlink:href="#m9dca8f3046" y="441.935195"/>
     <use style="fill:#0000ff;stroke:#0000ff;" x="247.756056" xlink:href="#m9dca8f3046" y="430.393748"/>
     <use style="fill:#0000ff;stroke:#0000ff;" x="268.852046" xlink:href="#m9dca8f3046" y="423.861436"/>
     <use style="fill:#0000ff;stroke:#0000ff;" x="288.441181" xlink:href="#m9dca8f3046" y="414.864953"/>
     <use style="fill:#0000ff;stroke:#0000ff;" x="335.153732" xlink:href="#m9dca8f3046" y="389.987989"/>
     <use style="fill:#0000ff;stroke:#0000ff;" x="383.373139" xlink:href="#m9dca8f3046" y="390.106801"/>
     <use style="fill:#0000ff;stroke:#0000ff;" x="431.592547" xlink:href="#m9dca8f3046" y="352.664226"/>
     <use style="fill:#0000ff;stroke:#0000ff;" x="493.373662" xlink:href="#m9dca8f3046" y="325.855371"/>
     <use style="fill:#0000ff;stroke:#0000ff;" x="537.0725" xlink:href="#m9dca8f3046" y="288.495964"/>
     <use style="fill:#0000ff;stroke:#0000ff;" x="582.278195" xlink:href="#m9dca8f3046" y="268.181401"/>
     <use style="fill:#0000ff;stroke:#0000ff;" x="653.100449" xlink:href="#m9dca8f3046" y="171.470392"/>
     <use style="fill:#0000ff;stroke:#0000ff;" x="716.388422" xlink:href="#m9dca8f3046" y="192.861397"/>
     <use style="fill:#0000ff;stroke:#0000ff;" x="770.635255" xlink:href="#m9dca8f3046" y="127.284019"/>
    </g>
   </g>
   <g id="line2d_30">
    <path clip-path="url(#pca7604e924)" d="M 92.188068 462.230749 
L 93.694925 462.230068 
L 95.201781 462.227355 
L 96.708638 462.222064 
L 98.215494 462.213833 
L 99.722351 462.202376 
L 101.229207 462.187457 
L 102.736064 462.168867 
L 104.24292 462.146423 
L 105.749777 462.119956 
L 107.256633 462.089313 
L 108.763489 462.054352 
L 110.270346 462.014939 
L 111.777202 461.970951 
L 113.284059 461.92227 
L 114.790915 461.868782 
L 116.297772 461.810383 
L 117.804628 461.74697 
L 119.311485 461.678445 
L 120.818341 461.604715 
L 122.325198 461.52569 
L 123.832054 461.441282 
L 125.338911 461.351409 
L 126.845767 461.255987 
L 128.352624 461.154939 
L 129.85948 461.048188 
L 131.366337 460.935659 
L 132.873193 460.81728 
L 134.38005 460.69298 
L 135.886906 460.562691 
L 137.393763 460.426346 
L 138.900619 460.283878 
L 140.407476 460.135224 
L 141.914332 459.980321 
L 143.421189 459.819108 
L 144.928045 459.651525 
L 146.434902 459.477512 
L 147.941758 459.297012 
L 149.448614 459.109968 
L 150.955471 458.916325 
L 152.462327 458.716028 
L 153.969184 458.509023 
L 155.47604 458.295257 
L 156.982897 458.074678 
L 158.489753 457.847236 
L 159.99661 457.612879 
L 161.503466 457.37156 
L 163.010323 457.123227 
L 164.517179 456.867835 
L 166.024036 456.605334 
L 167.530892 456.335679 
L 169.037749 456.058824 
L 170.544605 455.774722 
L 172.051462 455.48333 
L 173.558318 455.184603 
L 175.065175 454.878497 
L 176.572031 454.564969 
L 178.078888 454.243977 
L 179.585744 453.915478 
L 181.092601 453.579431 
L 182.599457 453.235795 
L 184.106314 452.88453 
L 185.61317 452.525594 
L 187.120027 452.158948 
L 188.626883 451.784554 
L 190.13374 451.402372 
L 191.640596 451.012363 
L 193.147452 450.61449 
L 194.654309 450.208716 
L 196.161165 449.795002 
L 197.668022 449.373312 
L 199.174878 448.943609 
L 200.681735 448.505858 
L 202.188591 448.060021 
L 203.695448 447.606065 
L 205.202304 447.143953 
L 206.709161 446.673652 
L 208.216017 446.195125 
L 209.722874 445.70834 
L 211.22973 445.213262 
L 212.736587 444.709857 
L 214.243443 444.198093 
L 215.7503 443.677936 
L 217.257156 443.149353 
L 218.764013 442.612312 
L 220.270869 442.066781 
L 221.777726 441.512727 
L 223.284582 440.95012 
L 224.791439 440.378927 
L 226.298295 439.799117 
L 227.805152 439.21066 
L 229.312008 438.613525 
L 230.818865 438.00768 
L 232.325721 437.393096 
L 233.832577 436.769743 
L 235.339434 436.137591 
L 236.84629 435.49661 
L 238.353147 434.846771 
L 239.860003 434.188045 
L 241.36686 433.520402 
L 242.873716 432.843814 
L 244.380573 432.158253 
L 245.887429 431.463689 
L 247.394286 430.760095 
L 248.901142 430.047443 
L 250.407999 429.325705 
L 251.914855 428.594852 
L 253.421712 427.854859 
L 254.928568 427.105696 
L 256.435425 426.347338 
" style="fill:none;stroke:#ff0000;stroke-linecap:square;stroke-width:1.5;"/>
   </g>
   <g id="line2d_31">
    <path clip-path="url(#pca7604e924)" d="M 256.703672 426.21137 
L 259.717385 425.824258 
L 264.237955 424.944731 
L 270.265381 423.501806 
L 277.799663 421.412464 
L 285.333946 419.087431 
L 294.375084 416.050943 
L 303.416223 412.790774 
L 313.964219 408.746578 
L 324.512214 404.476423 
L 336.567066 399.352149 
L 348.621918 393.994818 
L 362.183626 387.716636 
L 375.745334 381.196264 
L 390.813899 373.691447 
L 405.882464 365.934376 
L 422.457885 357.132034 
L 439.033307 348.066951 
L 455.608728 338.756276 
L 473.691006 328.336261 
L 491.773284 317.657809 
L 509.855561 306.735151 
L 529.444696 294.64112 
L 549.03383 282.289069 
L 570.129821 268.712442 
L 591.225811 254.86458 
L 612.321802 240.757694 
L 634.924649 225.368165 
L 657.527497 209.705996 
L 680.130344 193.782149 
L 704.240048 176.519481 
L 728.349751 158.981391 
L 752.459455 141.177907 
L 778.076015 121.981176 
L 803.692575 102.505322 
L 805.199432 101.351193 
L 805.199432 101.351193 
" style="fill:none;stroke:#008000;stroke-linecap:square;stroke-width:1.5;"/>
   </g>
   <g id="patch_3">
    <path d="M 56.5375 474.112 
L 56.5375 26.8 
" style="fill:none;stroke:#000000;stroke-linecap:square;stroke-linejoin:miter;stroke-width:0.8;"/>
   </g>
   <g id="patch_4">
    <path d="M 840.85 474.112 
L 840.85 26.8 
" style="fill:none;stroke:#000000;stroke-linecap:square;stroke-linejoin:miter;stroke-width:0.8;"/>
   </g>
   <g id="patch_5">
    <path d="M 56.5375 474.112 
L 840.85 474.112 
" style="fill:none;stroke:#000000;stroke-linecap:square;stroke-linejoin:miter;stroke-width:0.8;"/>
   </g>
   <g id="patch_6">
    <path d="M 56.5375 26.8 
L 840.85 26.8 
" style="fill:none;stroke:#000000;stroke-linecap:square;stroke-linejoin:miter;stroke-width:0.8;"/>
   </g>
   <g id="text_17">
    <!-- N=18 -->
    <g transform="translate(790.860625 451.7464)scale(0.12 -0.12)">
     <defs>
      <path d="M 628 4666 
L 1478 4666 
L 3547 763 
L 3547 4666 
L 4159 4666 
L 4159 0 
L 3309 0 
L 1241 3903 
L 1241 0 
L 628 0 
L 628 4666 
z
" id="DejaVuSans-4e" transform="scale(0.015625)"/>
      <path d="M 678 2906 
L 4684 2906 
L 4684 2381 
L 678 2381 
L 678 2906 
z
M 678 1631 
L 4684 1631 
L 4684 1100 
L 678 1100 
L 678 1631 
z
" id="DejaVuSans-3d" transform="scale(0.015625)"/>
      <path d="M 2034 2216 
Q 1584 2216 1326 1975 
Q 1069 1734 1069 1313 
Q 1069 891 1326 650 
Q 1584 409 2034 409 
Q 2484 409 2743 651 
Q 3003 894 3003 1313 
Q 3003 1734 2745 1975 
Q 2488 2216 2034 2216 
z
M 1403 2484 
Q 997 2584 770 2862 
Q 544 3141 544 3541 
Q 544 4100 942 4425 
Q 1341 4750 2034 4750 
Q 2731 4750 3128 4425 
Q 3525 4100 3525 3541 
Q 3525 3141 3298 2862 
Q 3072 2584 2669 2484 
Q 3125 2378 3379 2068 
Q 3634 1759 3634 1313 
Q 3634 634 3220 271 
Q 2806 -91 2034 -91 
Q 1263 -91 848 271 
Q 434 634 434 1313 
Q 434 1759 690 2068 
Q 947 2378 1403 2484 
z
M 1172 3481 
Q 1172 3119 1398 2916 
Q 1625 2713 2034 2713 
Q 2441 2713 2670 2916 
Q 2900 3119 2900 3481 
Q 2900 3844 2670 4047 
Q 2441 4250 2034 4250 
Q 1625 4250 1398 4047 
Q 1172 3844 1172 3481 
z
" id="DejaVuSans-38" transform="scale(0.015625)"/>
     </defs>
     <use xlink:href="#DejaVuSans-4e"/>
     <use x="74.804688" xlink:href="#DejaVuSans-3d"/>
     <use x="158.59375" xlink:href="#DejaVuSans-31"/>
     <use x="222.216797" xlink:href="#DejaVuSans-38"/>
    </g>
   </g>
   <g id="text_18">
    <!-- Scala deflusso F05 Tirso a Silì - Aggiornamento Maggio 2022 -->
    <g transform="translate(266.909688 20.8)scale(0.12 -0.12)">
     <defs>
      <path d="M 3425 4513 
L 3425 3897 
Q 3066 4069 2747 4153 
Q 2428 4238 2131 4238 
Q 1616 4238 1336 4038 
Q 1056 3838 1056 3469 
Q 1056 3159 1242 3001 
Q 1428 2844 1947 2747 
L 2328 2669 
Q 3034 2534 3370 2195 
Q 3706 1856 3706 1288 
Q 3706 609 3251 259 
Q 2797 -91 1919 -91 
Q 1588 -91 1214 -16 
Q 841 59 441 206 
L 441 856 
Q 825 641 1194 531 
Q 1563 422 1919 422 
Q 2459 422 2753 634 
Q 3047 847 3047 1241 
Q 3047 1584 2836 1778 
Q 2625 1972 2144 2069 
L 1759 2144 
Q 1053 2284 737 2584 
Q 422 2884 422 3419 
Q 422 4038 858 4394 
Q 1294 4750 2059 4750 
Q 2388 4750 2728 4690 
Q 3069 4631 3425 4513 
z
" id="DejaVuSans-53" transform="scale(0.015625)"/>
      <path d="M 2194 1759 
Q 1497 1759 1228 1600 
Q 959 1441 959 1056 
Q 959 750 1161 570 
Q 1363 391 1709 391 
Q 2188 391 2477 730 
Q 2766 1069 2766 1631 
L 2766 1759 
L 2194 1759 
z
M 3341 1997 
L 3341 0 
L 2766 0 
L 2766 531 
Q 2569 213 2275 61 
Q 1981 -91 1556 -91 
Q 1019 -91 701 211 
Q 384 513 384 1019 
Q 384 1609 779 1909 
Q 1175 2209 1959 2209 
L 2766 2209 
L 2766 2266 
Q 2766 2663 2505 2880 
Q 2244 3097 1772 3097 
Q 1472 3097 1187 3025 
Q 903 2953 641 2809 
L 641 3341 
Q 956 3463 1253 3523 
Q 1550 3584 1831 3584 
Q 2591 3584 2966 3190 
Q 3341 2797 3341 1997 
z
" id="DejaVuSans-61" transform="scale(0.015625)"/>
      <path d="M 2375 4863 
L 2375 4384 
L 1825 4384 
Q 1516 4384 1395 4259 
Q 1275 4134 1275 3809 
L 1275 3500 
L 2222 3500 
L 2222 3053 
L 1275 3053 
L 1275 0 
L 697 0 
L 697 3053 
L 147 3053 
L 147 3500 
L 697 3500 
L 697 3744 
Q 697 4328 969 4595 
Q 1241 4863 1831 4863 
L 2375 4863 
z
" id="DejaVuSans-66" transform="scale(0.015625)"/>
      <path d="M 544 1381 
L 544 3500 
L 1119 3500 
L 1119 1403 
Q 1119 906 1312 657 
Q 1506 409 1894 409 
Q 2359 409 2629 706 
Q 2900 1003 2900 1516 
L 2900 3500 
L 3475 3500 
L 3475 0 
L 2900 0 
L 2900 538 
Q 2691 219 2414 64 
Q 2138 -91 1772 -91 
Q 1169 -91 856 284 
Q 544 659 544 1381 
z
M 1991 3584 
L 1991 3584 
z
" id="DejaVuSans-75" transform="scale(0.015625)"/>
      <path d="M 2834 3397 
L 2834 2853 
Q 2591 2978 2328 3040 
Q 2066 3103 1784 3103 
Q 1356 3103 1142 2972 
Q 928 2841 928 2578 
Q 928 2378 1081 2264 
Q 1234 2150 1697 2047 
L 1894 2003 
Q 2506 1872 2764 1633 
Q 3022 1394 3022 966 
Q 3022 478 2636 193 
Q 2250 -91 1575 -91 
Q 1294 -91 989 -36 
Q 684 19 347 128 
L 347 722 
Q 666 556 975 473 
Q 1284 391 1588 391 
Q 1994 391 2212 530 
Q 2431 669 2431 922 
Q 2431 1156 2273 1281 
Q 2116 1406 1581 1522 
L 1381 1569 
Q 847 1681 609 1914 
Q 372 2147 372 2553 
Q 372 3047 722 3315 
Q 1072 3584 1716 3584 
Q 2034 3584 2315 3537 
Q 2597 3491 2834 3397 
z
" id="DejaVuSans-73" transform="scale(0.015625)"/>
      <path d="M 628 4666 
L 3309 4666 
L 3309 4134 
L 1259 4134 
L 1259 2759 
L 3109 2759 
L 3109 2228 
L 1259 2228 
L 1259 0 
L 628 0 
L 628 4666 
z
" id="DejaVuSans-46" transform="scale(0.015625)"/>
      <path d="M -19 4666 
L 3928 4666 
L 3928 4134 
L 2272 4134 
L 2272 0 
L 1638 0 
L 1638 4134 
L -19 4134 
L -19 4666 
z
" id="DejaVuSans-54" transform="scale(0.015625)"/>
      <path d="M 438 5119 
L 1319 3950 
L 841 3950 
L -178 5119 
L 438 5119 
z
M 603 3500 
L 1178 3500 
L 1178 0 
L 603 0 
L 603 3500 
z
M 891 3584 
L 891 3584 
z
" id="DejaVuSans-ec" transform="scale(0.015625)"/>
      <path d="M 313 2009 
L 1997 2009 
L 1997 1497 
L 313 1497 
L 313 2009 
z
" id="DejaVuSans-2d" transform="scale(0.015625)"/>
      <path d="M 2188 4044 
L 1331 1722 
L 3047 1722 
L 2188 4044 
z
M 1831 4666 
L 2547 4666 
L 4325 0 
L 3669 0 
L 3244 1197 
L 1141 1197 
L 716 0 
L 50 0 
L 1831 4666 
z
" id="DejaVuSans-41" transform="scale(0.015625)"/>
      <path d="M 2906 1791 
Q 2906 2416 2648 2759 
Q 2391 3103 1925 3103 
Q 1463 3103 1205 2759 
Q 947 2416 947 1791 
Q 947 1169 1205 825 
Q 1463 481 1925 481 
Q 2391 481 2648 825 
Q 2906 1169 2906 1791 
z
M 3481 434 
Q 3481 -459 3084 -895 
Q 2688 -1331 1869 -1331 
Q 1566 -1331 1297 -1286 
Q 1028 -1241 775 -1147 
L 775 -588 
Q 1028 -725 1275 -790 
Q 1522 -856 1778 -856 
Q 2344 -856 2625 -561 
Q 2906 -266 2906 331 
L 2906 616 
Q 2728 306 2450 153 
Q 2172 0 1784 0 
Q 1141 0 747 490 
Q 353 981 353 1791 
Q 353 2603 747 3093 
Q 1141 3584 1784 3584 
Q 2172 3584 2450 3431 
Q 2728 3278 2906 2969 
L 2906 3500 
L 3481 3500 
L 3481 434 
z
" id="DejaVuSans-67" transform="scale(0.015625)"/>
      <path d="M 3513 2113 
L 3513 0 
L 2938 0 
L 2938 2094 
Q 2938 2591 2744 2837 
Q 2550 3084 2163 3084 
Q 1697 3084 1428 2787 
Q 1159 2491 1159 1978 
L 1159 0 
L 581 0 
L 581 3500 
L 1159 3500 
L 1159 2956 
Q 1366 3272 1645 3428 
Q 1925 3584 2291 3584 
Q 2894 3584 3203 3211 
Q 3513 2838 3513 2113 
z
" id="DejaVuSans-6e" transform="scale(0.015625)"/>
      <path d="M 628 4666 
L 1569 4666 
L 2759 1491 
L 3956 4666 
L 4897 4666 
L 4897 0 
L 4281 0 
L 4281 4097 
L 3078 897 
L 2444 897 
L 1241 4097 
L 1241 0 
L 628 0 
L 628 4666 
z
" id="DejaVuSans-4d" transform="scale(0.015625)"/>
     </defs>
     <use xlink:href="#DejaVuSans-53"/>
     <use x="63.476562" xlink:href="#DejaVuSans-63"/>
     <use x="118.457031" xlink:href="#DejaVuSans-61"/>
     <use x="179.736328" xlink:href="#DejaVuSans-6c"/>
     <use x="207.519531" xlink:href="#DejaVuSans-61"/>
     <use x="268.798828" xlink:href="#DejaVuSans-20"/>
     <use x="300.585938" xlink:href="#DejaVuSans-64"/>
     <use x="364.0625" xlink:href="#DejaVuSans-65"/>
     <use x="425.585938" xlink:href="#DejaVuSans-66"/>
     <use x="460.791016" xlink:href="#DejaVuSans-6c"/>
     <use x="488.574219" xlink:href="#DejaVuSans-75"/>
     <use x="551.953125" xlink:href="#DejaVuSans-73"/>
     <use x="604.052734" xlink:href="#DejaVuSans-73"/>
     <use x="656.152344" xlink:href="#DejaVuSans-6f"/>
     <use x="717.333984" xlink:href="#DejaVuSans-20"/>
     <use x="749.121094" xlink:href="#DejaVuSans-46"/>
     <use x="806.640625" xlink:href="#DejaVuSans-30"/>
     <use x="870.263672" xlink:href="#DejaVuSans-35"/>
     <use x="933.886719" xlink:href="#DejaVuSans-20"/>
     <use x="965.673828" xlink:href="#DejaVuSans-54"/>
     <use x="1023.632812" xlink:href="#DejaVuSans-69"/>
     <use x="1051.416016" xlink:href="#DejaVuSans-72"/>
     <use x="1092.529297" xlink:href="#DejaVuSans-73"/>
     <use x="1144.628906" xlink:href="#DejaVuSans-6f"/>
     <use x="1205.810547" xlink:href="#DejaVuSans-20"/>
     <use x="1237.597656" xlink:href="#DejaVuSans-61"/>
     <use x="1298.876953" xlink:href="#DejaVuSans-20"/>
     <use x="1330.664062" xlink:href="#DejaVuSans-53"/>
     <use x="1394.140625" xlink:href="#DejaVuSans-69"/>
     <use x="1421.923828" xlink:href="#DejaVuSans-6c"/>
     <use x="1449.707031" xlink:href="#DejaVuSans-ec"/>
     <use x="1477.490234" xlink:href="#DejaVuSans-20"/>
     <use x="1509.277344" xlink:href="#DejaVuSans-2d"/>
     <use x="1545.361328" xlink:href="#DejaVuSans-20"/>
     <use x="1577.148438" xlink:href="#DejaVuSans-41"/>
     <use x="1645.556641" xlink:href="#DejaVuSans-67"/>
     <use x="1709.033203" xlink:href="#DejaVuSans-67"/>
     <use x="1772.509766" xlink:href="#DejaVuSans-69"/>
     <use x="1800.292969" xlink:href="#DejaVuSans-6f"/>
     <use x="1861.474609" xlink:href="#DejaVuSans-72"/>
     <use x="1900.837891" xlink:href="#DejaVuSans-6e"/>
     <use x="1964.216797" xlink:href="#DejaVuSans-61"/>
     <use x="2025.496094" xlink:href="#DejaVuSans-6d"/>
     <use x="2122.908203" xlink:href="#DejaVuSans-65"/>
     <use x="2184.431641" xlink:href="#DejaVuSans-6e"/>
     <use x="2247.810547" xlink:href="#DejaVuSans-74"/>
     <use x="2287.019531" xlink:href="#DejaVuSans-6f"/>
     <use x="2348.201172" xlink:href="#DejaVuSans-20"/>
     <use x="2379.988281" xlink:href="#DejaVuSans-4d"/>
     <use x="2466.267578" xlink:href="#DejaVuSans-61"/>
     <use x="2527.546875" xlink:href="#DejaVuSans-67"/>
     <use x="2591.023438" xlink:href="#DejaVuSans-67"/>
     <use x="2654.5" xlink:href="#DejaVuSans-69"/>
     <use x="2682.283203" xlink:href="#DejaVuSans-6f"/>
     <use x="2743.464844" xlink:href="#DejaVuSans-20"/>
     <use x="2775.251953" xlink:href="#DejaVuSans-32"/>
     <use x="2838.875" xlink:href="#DejaVuSans-30"/>
     <use x="2902.498047" xlink:href="#DejaVuSans-32"/>
     <use x="2966.121094" xlink:href="#DejaVuSans-32"/>
    </g>
   </g>
   <g id="legend_1">
    <g id="patch_7">
     <path d="M 107.712188 565.6707 
L 793.675313 565.6707 
Q 796.075313 565.6707 796.075313 563.2707 
L 796.075313 529.2432 
Q 796.075313 526.8432 793.675313 526.8432 
L 107.712188 526.8432 
Q 105.312188 526.8432 105.312188 529.2432 
L 105.312188 563.2707 
Q 105.312188 565.6707 107.712188 565.6707 
z
" style="fill:#4c4c4c;opacity:0.5;stroke:#4c4c4c;stroke-linejoin:miter;"/>
    </g>
    <g id="patch_8">
     <path d="M 105.712188 563.6707 
L 791.675313 563.6707 
Q 794.075313 563.6707 794.075313 561.2707 
L 794.075313 527.2432 
Q 794.075313 524.8432 791.675313 524.8432 
L 105.712188 524.8432 
Q 103.312188 524.8432 103.312188 527.2432 
L 103.312188 561.2707 
Q 103.312188 563.6707 105.712188 563.6707 
z
" style="fill:#ffffff;stroke:#cccccc;stroke-linejoin:miter;"/>
    </g>
    <g id="line2d_32"/>
    <g id="line2d_33">
     <g>
      <use style="fill:#0000ff;stroke:#0000ff;" x="120.112188" xlink:href="#m9dca8f3046" y="534.561325"/>
     </g>
    </g>
    <g id="text_19">
     <!-- h,Q misurate -->
     <g transform="translate(141.712188 538.761325)scale(0.12 -0.12)">
      <defs>
       <path d="M 750 794 
L 1409 794 
L 1409 256 
L 897 -744 
L 494 -744 
L 750 256 
L 750 794 
z
" id="DejaVuSans-2c" transform="scale(0.015625)"/>
       <path d="M 2522 4238 
Q 1834 4238 1429 3725 
Q 1025 3213 1025 2328 
Q 1025 1447 1429 934 
Q 1834 422 2522 422 
Q 3209 422 3611 934 
Q 4013 1447 4013 2328 
Q 4013 3213 3611 3725 
Q 3209 4238 2522 4238 
z
M 3406 84 
L 4238 -825 
L 3475 -825 
L 2784 -78 
Q 2681 -84 2626 -87 
Q 2572 -91 2522 -91 
Q 1538 -91 948 567 
Q 359 1225 359 2328 
Q 359 3434 948 4092 
Q 1538 4750 2522 4750 
Q 3503 4750 4090 4092 
Q 4678 3434 4678 2328 
Q 4678 1516 4351 937 
Q 4025 359 3406 84 
z
" id="DejaVuSans-51" transform="scale(0.015625)"/>
      </defs>
      <use xlink:href="#DejaVuSans-68"/>
      <use x="63.378906" xlink:href="#DejaVuSans-2c"/>
      <use x="95.166016" xlink:href="#DejaVuSans-51"/>
      <use x="173.876953" xlink:href="#DejaVuSans-20"/>
      <use x="205.664062" xlink:href="#DejaVuSans-6d"/>
      <use x="303.076172" xlink:href="#DejaVuSans-69"/>
      <use x="330.859375" xlink:href="#DejaVuSans-73"/>
      <use x="382.958984" xlink:href="#DejaVuSans-75"/>
      <use x="446.337891" xlink:href="#DejaVuSans-72"/>
      <use x="487.451172" xlink:href="#DejaVuSans-61"/>
      <use x="548.730469" xlink:href="#DejaVuSans-74"/>
      <use x="587.939453" xlink:href="#DejaVuSans-65"/>
     </g>
    </g>
    <g id="line2d_34">
     <path d="M 108.112188 552.175075 
L 132.112188 552.175075 
" style="fill:none;stroke:#ff0000;stroke-linecap:square;stroke-width:1.5;"/>
    </g>
    <g id="line2d_35"/>
    <g id="text_20">
     <!-- Scala di deflusso di magra-morbida -->
     <g transform="translate(141.712188 556.375075)scale(0.12 -0.12)">
      <defs>
       <path d="M 3116 1747 
Q 3116 2381 2855 2742 
Q 2594 3103 2138 3103 
Q 1681 3103 1420 2742 
Q 1159 2381 1159 1747 
Q 1159 1113 1420 752 
Q 1681 391 2138 391 
Q 2594 391 2855 752 
Q 3116 1113 3116 1747 
z
M 1159 2969 
Q 1341 3281 1617 3432 
Q 1894 3584 2278 3584 
Q 2916 3584 3314 3078 
Q 3713 2572 3713 1747 
Q 3713 922 3314 415 
Q 2916 -91 2278 -91 
Q 1894 -91 1617 61 
Q 1341 213 1159 525 
L 1159 0 
L 581 0 
L 581 4863 
L 1159 4863 
L 1159 2969 
z
" id="DejaVuSans-62" transform="scale(0.015625)"/>
      </defs>
      <use xlink:href="#DejaVuSans-53"/>
      <use x="63.476562" xlink:href="#DejaVuSans-63"/>
      <use x="118.457031" xlink:href="#DejaVuSans-61"/>
      <use x="179.736328" xlink:href="#DejaVuSans-6c"/>
      <use x="207.519531" xlink:href="#DejaVuSans-61"/>
      <use x="268.798828" xlink:href="#DejaVuSans-20"/>
      <use x="300.585938" xlink:href="#DejaVuSans-64"/>
      <use x="364.0625" xlink:href="#DejaVuSans-69"/>
      <use x="391.845703" xlink:href="#DejaVuSans-20"/>
      <use x="423.632812" xlink:href="#DejaVuSans-64"/>
      <use x="487.109375" xlink:href="#DejaVuSans-65"/>
      <use x="548.632812" xlink:href="#DejaVuSans-66"/>
      <use x="583.837891" xlink:href="#DejaVuSans-6c"/>
      <use x="611.621094" xlink:href="#DejaVuSans-75"/>
      <use x="675" xlink:href="#DejaVuSans-73"/>
      <use x="727.099609" xlink:href="#DejaVuSans-73"/>
      <use x="779.199219" xlink:href="#DejaVuSans-6f"/>
      <use x="840.380859" xlink:href="#DejaVuSans-20"/>
      <use x="872.167969" xlink:href="#DejaVuSans-64"/>
      <use x="935.644531" xlink:href="#DejaVuSans-69"/>
      <use x="963.427734" xlink:href="#DejaVuSans-20"/>
      <use x="995.214844" xlink:href="#DejaVuSans-6d"/>
      <use x="1092.626953" xlink:href="#DejaVuSans-61"/>
      <use x="1153.90625" xlink:href="#DejaVuSans-67"/>
      <use x="1217.382812" xlink:href="#DejaVuSans-72"/>
      <use x="1258.496094" xlink:href="#DejaVuSans-61"/>
      <use x="1319.775391" xlink:href="#DejaVuSans-2d"/>
      <use x="1355.859375" xlink:href="#DejaVuSans-6d"/>
      <use x="1453.271484" xlink:href="#DejaVuSans-6f"/>
      <use x="1514.453125" xlink:href="#DejaVuSans-72"/>
      <use x="1555.566406" xlink:href="#DejaVuSans-62"/>
      <use x="1619.042969" xlink:href="#DejaVuSans-69"/>
      <use x="1646.826172" xlink:href="#DejaVuSans-64"/>
      <use x="1710.302734" xlink:href="#DejaVuSans-61"/>
     </g>
    </g>
    <g id="line2d_36">
     <path d="M 378.303438 534.561325 
L 402.303438 534.561325 
" style="fill:none;stroke:#008000;stroke-linecap:square;stroke-width:1.5;"/>
    </g>
    <g id="line2d_37"/>
    <g id="text_21">
     <!-- Scala di deflusso di piena -->
     <g transform="translate(411.903438 538.761325)scale(0.12 -0.12)">
      <defs>
       <path d="M 1159 525 
L 1159 -1331 
L 581 -1331 
L 581 3500 
L 1159 3500 
L 1159 2969 
Q 1341 3281 1617 3432 
Q 1894 3584 2278 3584 
Q 2916 3584 3314 3078 
Q 3713 2572 3713 1747 
Q 3713 922 3314 415 
Q 2916 -91 2278 -91 
Q 1894 -91 1617 61 
Q 1341 213 1159 525 
z
M 3116 1747 
Q 3116 2381 2855 2742 
Q 2594 3103 2138 3103 
Q 1681 3103 1420 2742 
Q 1159 2381 1159 1747 
Q 1159 1113 1420 752 
Q 1681 391 2138 391 
Q 2594 391 2855 752 
Q 3116 1113 3116 1747 
z
" id="DejaVuSans-70" transform="scale(0.015625)"/>
      </defs>
      <use xlink:href="#DejaVuSans-53"/>
      <use x="63.476562" xlink:href="#DejaVuSans-63"/>
      <use x="118.457031" xlink:href="#DejaVuSans-61"/>
      <use x="179.736328" xlink:href="#DejaVuSans-6c"/>
      <use x="207.519531" xlink:href="#DejaVuSans-61"/>
      <use x="268.798828" xlink:href="#DejaVuSans-20"/>
      <use x="300.585938" xlink:href="#DejaVuSans-64"/>
      <use x="364.0625" xlink:href="#DejaVuSans-69"/>
      <use x="391.845703" xlink:href="#DejaVuSans-20"/>
      <use x="423.632812" xlink:href="#DejaVuSans-64"/>
      <use x="487.109375" xlink:href="#DejaVuSans-65"/>
      <use x="548.632812" xlink:href="#DejaVuSans-66"/>
      <use x="583.837891" xlink:href="#DejaVuSans-6c"/>
      <use x="611.621094" xlink:href="#DejaVuSans-75"/>
      <use x="675" xlink:href="#DejaVuSans-73"/>
      <use x="727.099609" xlink:href="#DejaVuSans-73"/>
      <use x="779.199219" xlink:href="#DejaVuSans-6f"/>
      <use x="840.380859" xlink:href="#DejaVuSans-20"/>
      <use x="872.167969" xlink:href="#DejaVuSans-64"/>
      <use x="935.644531" xlink:href="#DejaVuSans-69"/>
      <use x="963.427734" xlink:href="#DejaVuSans-20"/>
      <use x="995.214844" xlink:href="#DejaVuSans-70"/>
      <use x="1058.691406" xlink:href="#DejaVuSans-69"/>
      <use x="1086.474609" xlink:href="#DejaVuSans-65"/>
      <use x="1147.998047" xlink:href="#DejaVuSans-6e"/>
      <use x="1211.376953" xlink:href="#DejaVuSans-61"/>
     </g>
    </g>
    <g id="line2d_38">
     <path d="M 378.303438 552.175075 
L 402.303438 552.175075 
" style="fill:none;stroke:#ff0000;stroke-dasharray:7.4,3.2;stroke-dashoffset:0;stroke-width:2;"/>
    </g>
    <g id="text_22">
     <!-- Separazione fra tratto di magra-morbida e piena hs=1,2994 m -->
     <g transform="translate(411.903438 556.375075)scale(0.12 -0.12)">
      <defs>
       <path d="M 353 3500 
L 3084 3500 
L 3084 2975 
L 922 459 
L 3084 459 
L 3084 0 
L 275 0 
L 275 525 
L 2438 3041 
L 353 3041 
L 353 3500 
z
" id="DejaVuSans-7a" transform="scale(0.015625)"/>
       <path d="M 703 97 
L 703 672 
Q 941 559 1184 500 
Q 1428 441 1663 441 
Q 2288 441 2617 861 
Q 2947 1281 2994 2138 
Q 2813 1869 2534 1725 
Q 2256 1581 1919 1581 
Q 1219 1581 811 2004 
Q 403 2428 403 3163 
Q 403 3881 828 4315 
Q 1253 4750 1959 4750 
Q 2769 4750 3195 4129 
Q 3622 3509 3622 2328 
Q 3622 1225 3098 567 
Q 2575 -91 1691 -91 
Q 1453 -91 1209 -44 
Q 966 3 703 97 
z
M 1959 2075 
Q 2384 2075 2632 2365 
Q 2881 2656 2881 3163 
Q 2881 3666 2632 3958 
Q 2384 4250 1959 4250 
Q 1534 4250 1286 3958 
Q 1038 3666 1038 3163 
Q 1038 2656 1286 2365 
Q 1534 2075 1959 2075 
z
" id="DejaVuSans-39" transform="scale(0.015625)"/>
      </defs>
      <use xlink:href="#DejaVuSans-53"/>
      <use x="63.476562" xlink:href="#DejaVuSans-65"/>
      <use x="125" xlink:href="#DejaVuSans-70"/>
      <use x="188.476562" xlink:href="#DejaVuSans-61"/>
      <use x="249.755859" xlink:href="#DejaVuSans-72"/>
      <use x="290.869141" xlink:href="#DejaVuSans-61"/>
      <use x="352.148438" xlink:href="#DejaVuSans-7a"/>
      <use x="404.638672" xlink:href="#DejaVuSans-69"/>
      <use x="432.421875" xlink:href="#DejaVuSans-6f"/>
      <use x="493.603516" xlink:href="#DejaVuSans-6e"/>
      <use x="556.982422" xlink:href="#DejaVuSans-65"/>
      <use x="618.505859" xlink:href="#DejaVuSans-20"/>
      <use x="650.292969" xlink:href="#DejaVuSans-66"/>
      <use x="685.498047" xlink:href="#DejaVuSans-72"/>
      <use x="726.611328" xlink:href="#DejaVuSans-61"/>
      <use x="787.890625" xlink:href="#DejaVuSans-20"/>
      <use x="819.677734" xlink:href="#DejaVuSans-74"/>
      <use x="858.886719" xlink:href="#DejaVuSans-72"/>
      <use x="900" xlink:href="#DejaVuSans-61"/>
      <use x="961.279297" xlink:href="#DejaVuSans-74"/>
      <use x="1000.488281" xlink:href="#DejaVuSans-74"/>
      <use x="1039.697266" xlink:href="#DejaVuSans-6f"/>
      <use x="1100.878906" xlink:href="#DejaVuSans-20"/>
      <use x="1132.666016" xlink:href="#DejaVuSans-64"/>
      <use x="1196.142578" xlink:href="#DejaVuSans-69"/>
      <use x="1223.925781" xlink:href="#DejaVuSans-20"/>
      <use x="1255.712891" xlink:href="#DejaVuSans-6d"/>
      <use x="1353.125" xlink:href="#DejaVuSans-61"/>
      <use x="1414.404297" xlink:href="#DejaVuSans-67"/>
      <use x="1477.880859" xlink:href="#DejaVuSans-72"/>
      <use x="1518.994141" xlink:href="#DejaVuSans-61"/>
      <use x="1580.273438" xlink:href="#DejaVuSans-2d"/>
      <use x="1616.357422" xlink:href="#DejaVuSans-6d"/>
      <use x="1713.769531" xlink:href="#DejaVuSans-6f"/>
      <use x="1774.951172" xlink:href="#DejaVuSans-72"/>
      <use x="1816.064453" xlink:href="#DejaVuSans-62"/>
      <use x="1879.541016" xlink:href="#DejaVuSans-69"/>
      <use x="1907.324219" xlink:href="#DejaVuSans-64"/>
      <use x="1970.800781" xlink:href="#DejaVuSans-61"/>
      <use x="2032.080078" xlink:href="#DejaVuSans-20"/>
      <use x="2063.867188" xlink:href="#DejaVuSans-65"/>
      <use x="2125.390625" xlink:href="#DejaVuSans-20"/>
      <use x="2157.177734" xlink:href="#DejaVuSans-70"/>
      <use x="2220.654297" xlink:href="#DejaVuSans-69"/>
      <use x="2248.4375" xlink:href="#DejaVuSans-65"/>
      <use x="2309.960938" xlink:href="#DejaVuSans-6e"/>
      <use x="2373.339844" xlink:href="#DejaVuSans-61"/>
      <use x="2434.619141" xlink:href="#DejaVuSans-20"/>
      <use x="2466.40625" xlink:href="#DejaVuSans-68"/>
      <use x="2529.785156" xlink:href="#DejaVuSans-73"/>
      <use x="2581.884766" xlink:href="#DejaVuSans-3d"/>
      <use x="2665.673828" xlink:href="#DejaVuSans-31"/>
      <use x="2729.296875" xlink:href="#DejaVuSans-2c"/>
      <use x="2761.083984" xlink:href="#DejaVuSans-32"/>
      <use x="2824.707031" xlink:href="#DejaVuSans-39"/>
      <use x="2888.330078" xlink:href="#DejaVuSans-39"/>
      <use x="2951.953125" xlink:href="#DejaVuSans-34"/>
      <use x="3015.576172" xlink:href="#DejaVuSans-20"/>
      <use x="3047.363281" xlink:href="#DejaVuSans-6d"/>
     </g>
    </g>
   </g>
  </g>
 </g>
 <defs>
  <clipPath id="pca7604e924">
   <rect height="447.312" width="784.3125" x="56.5375" y="26.8"/>
  </clipPath>
 </defs>
</svg>
