<?xml version="1.0" encoding="utf-8" standalone="no"?>
<!DOCTYPE svg PUBLIC "-//W3C//DTD SVG 1.1//EN"
  "http://www.w3.org/Graphics/SVG/1.1/DTD/svg11.dtd">
<svg height="576pt" version="1.1" viewBox="0 0 864 576" width="864pt" xmlns="http://www.w3.org/2000/svg" xmlns:xlink="http://www.w3.org/1999/xlink">
 <metadata>
  <rdf:RDF xmlns:cc="http://creativecommons.org/ns#" xmlns:dc="http://purl.org/dc/elements/1.1/" xmlns:rdf="http://www.w3.org/1999/02/22-rdf-syntax-ns#">
   <cc:Work>
    <dc:type rdf:resource="http://purl.org/dc/dcmitype/StillImage"/>
    <dc:date>2022-05-19T10:35:00.913173</dc:date>
    <dc:format>image/svg+xml</dc:format>
    <dc:creator>
     <cc:Agent>
      <dc:title>Matplotlib v3.4.3, https://matplotlib.org/</dc:title>
     </cc:Agent>
    </dc:creator>
   </cc:Work>
  </rdf:RDF>
 </metadata>
 <defs>
  <style type="text/css">*{stroke-linecap:butt;stroke-linejoin:round;}</style>
 </defs>
 <g id="figure_1">
  <g id="patch_1">
   <path d="M 0 576 
L 864 576 
L 864 0 
L 0 0 
z
" style="fill:#ffffff;"/>
  </g>
  <g id="axes_1">
   <g id="patch_2">
    <path d="M 56.5375 474.112 
L 840.85 474.112 
L 840.85 26.8 
L 56.5375 26.8 
z
" style="fill:#ffffff;"/>
   </g>
   <g id="matplotlib.axis_1">
    <g id="xtick_1">
     <g id="line2d_1">
      <path clip-path="url(#p2d6038a523)" d="M 68.785598 474.112 
L 68.785598 26.8 
" style="fill:none;stroke:#b0b0b0;stroke-linecap:square;stroke-width:0.8;"/>
     </g>
     <g id="line2d_2">
      <defs>
       <path d="M 0 0 
L 0 3.5 
" id="m335e46448c" style="stroke:#000000;stroke-width:0.8;"/>
      </defs>
      <g>
       <use style="stroke:#000000;stroke-width:0.8;" x="68.785598" xlink:href="#m335e46448c" y="474.112"/>
      </g>
     </g>
     <g id="text_1">
      <!-- 0.5 -->
      <g transform="translate(60.834036 488.710438)scale(0.1 -0.1)">
       <defs>
        <path d="M 2034 4250 
Q 1547 4250 1301 3770 
Q 1056 3291 1056 2328 
Q 1056 1369 1301 889 
Q 1547 409 2034 409 
Q 2525 409 2770 889 
Q 3016 1369 3016 2328 
Q 3016 3291 2770 3770 
Q 2525 4250 2034 4250 
z
M 2034 4750 
Q 2819 4750 3233 4129 
Q 3647 3509 3647 2328 
Q 3647 1150 3233 529 
Q 2819 -91 2034 -91 
Q 1250 -91 836 529 
Q 422 1150 422 2328 
Q 422 3509 836 4129 
Q 1250 4750 2034 4750 
z
" id="DejaVuSans-30" transform="scale(0.015625)"/>
        <path d="M 684 794 
L 1344 794 
L 1344 0 
L 684 0 
L 684 794 
z
" id="DejaVuSans-2e" transform="scale(0.015625)"/>
        <path d="M 691 4666 
L 3169 4666 
L 3169 4134 
L 1269 4134 
L 1269 2991 
Q 1406 3038 1543 3061 
Q 1681 3084 1819 3084 
Q 2600 3084 3056 2656 
Q 3513 2228 3513 1497 
Q 3513 744 3044 326 
Q 2575 -91 1722 -91 
Q 1428 -91 1123 -41 
Q 819 9 494 109 
L 494 744 
Q 775 591 1075 516 
Q 1375 441 1709 441 
Q 2250 441 2565 725 
Q 2881 1009 2881 1497 
Q 2881 1984 2565 2268 
Q 2250 2553 1709 2553 
Q 1456 2553 1204 2497 
Q 953 2441 691 2322 
L 691 4666 
z
" id="DejaVuSans-35" transform="scale(0.015625)"/>
       </defs>
       <use xlink:href="#DejaVuSans-30"/>
       <use x="63.623047" xlink:href="#DejaVuSans-2e"/>
       <use x="95.410156" xlink:href="#DejaVuSans-35"/>
      </g>
     </g>
    </g>
    <g id="xtick_2">
     <g id="line2d_3">
      <path clip-path="url(#p2d6038a523)" d="M 186.42329 474.112 
L 186.42329 26.8 
" style="fill:none;stroke:#b0b0b0;stroke-linecap:square;stroke-width:0.8;"/>
     </g>
     <g id="line2d_4">
      <g>
       <use style="stroke:#000000;stroke-width:0.8;" x="186.42329" xlink:href="#m335e46448c" y="474.112"/>
      </g>
     </g>
     <g id="text_2">
      <!-- 1.0 -->
      <g transform="translate(178.471728 488.710438)scale(0.1 -0.1)">
       <defs>
        <path d="M 794 531 
L 1825 531 
L 1825 4091 
L 703 3866 
L 703 4441 
L 1819 4666 
L 2450 4666 
L 2450 531 
L 3481 531 
L 3481 0 
L 794 0 
L 794 531 
z
" id="DejaVuSans-31" transform="scale(0.015625)"/>
       </defs>
       <use xlink:href="#DejaVuSans-31"/>
       <use x="63.623047" xlink:href="#DejaVuSans-2e"/>
       <use x="95.410156" xlink:href="#DejaVuSans-30"/>
      </g>
     </g>
    </g>
    <g id="xtick_3">
     <g id="line2d_5">
      <path clip-path="url(#p2d6038a523)" d="M 304.060982 474.112 
L 304.060982 26.8 
" style="fill:none;stroke:#b0b0b0;stroke-linecap:square;stroke-width:0.8;"/>
     </g>
     <g id="line2d_6">
      <g>
       <use style="stroke:#000000;stroke-width:0.8;" x="304.060982" xlink:href="#m335e46448c" y="474.112"/>
      </g>
     </g>
     <g id="text_3">
      <!-- 1.5 -->
      <g transform="translate(296.10942 488.710438)scale(0.1 -0.1)">
       <use xlink:href="#DejaVuSans-31"/>
       <use x="63.623047" xlink:href="#DejaVuSans-2e"/>
       <use x="95.410156" xlink:href="#DejaVuSans-35"/>
      </g>
     </g>
    </g>
    <g id="xtick_4">
     <g id="line2d_7">
      <path clip-path="url(#p2d6038a523)" d="M 421.698674 474.112 
L 421.698674 26.8 
" style="fill:none;stroke:#b0b0b0;stroke-linecap:square;stroke-width:0.8;"/>
     </g>
     <g id="line2d_8">
      <g>
       <use style="stroke:#000000;stroke-width:0.8;" x="421.698674" xlink:href="#m335e46448c" y="474.112"/>
      </g>
     </g>
     <g id="text_4">
      <!-- 2.0 -->
      <g transform="translate(413.747111 488.710438)scale(0.1 -0.1)">
       <defs>
        <path d="M 1228 531 
L 3431 531 
L 3431 0 
L 469 0 
L 469 531 
Q 828 903 1448 1529 
Q 2069 2156 2228 2338 
Q 2531 2678 2651 2914 
Q 2772 3150 2772 3378 
Q 2772 3750 2511 3984 
Q 2250 4219 1831 4219 
Q 1534 4219 1204 4116 
Q 875 4013 500 3803 
L 500 4441 
Q 881 4594 1212 4672 
Q 1544 4750 1819 4750 
Q 2544 4750 2975 4387 
Q 3406 4025 3406 3419 
Q 3406 3131 3298 2873 
Q 3191 2616 2906 2266 
Q 2828 2175 2409 1742 
Q 1991 1309 1228 531 
z
" id="DejaVuSans-32" transform="scale(0.015625)"/>
       </defs>
       <use xlink:href="#DejaVuSans-32"/>
       <use x="63.623047" xlink:href="#DejaVuSans-2e"/>
       <use x="95.410156" xlink:href="#DejaVuSans-30"/>
      </g>
     </g>
    </g>
    <g id="xtick_5">
     <g id="line2d_9">
      <path clip-path="url(#p2d6038a523)" d="M 539.336366 474.112 
L 539.336366 26.8 
" style="fill:none;stroke:#b0b0b0;stroke-linecap:square;stroke-width:0.8;"/>
     </g>
     <g id="line2d_10">
      <g>
       <use style="stroke:#000000;stroke-width:0.8;" x="539.336366" xlink:href="#m335e46448c" y="474.112"/>
      </g>
     </g>
     <g id="text_5">
      <!-- 2.5 -->
      <g transform="translate(531.384803 488.710438)scale(0.1 -0.1)">
       <use xlink:href="#DejaVuSans-32"/>
       <use x="63.623047" xlink:href="#DejaVuSans-2e"/>
       <use x="95.410156" xlink:href="#DejaVuSans-35"/>
      </g>
     </g>
    </g>
    <g id="xtick_6">
     <g id="line2d_11">
      <path clip-path="url(#p2d6038a523)" d="M 656.974058 474.112 
L 656.974058 26.8 
" style="fill:none;stroke:#b0b0b0;stroke-linecap:square;stroke-width:0.8;"/>
     </g>
     <g id="line2d_12">
      <g>
       <use style="stroke:#000000;stroke-width:0.8;" x="656.974058" xlink:href="#m335e46448c" y="474.112"/>
      </g>
     </g>
     <g id="text_6">
      <!-- 3.0 -->
      <g transform="translate(649.022495 488.710438)scale(0.1 -0.1)">
       <defs>
        <path d="M 2597 2516 
Q 3050 2419 3304 2112 
Q 3559 1806 3559 1356 
Q 3559 666 3084 287 
Q 2609 -91 1734 -91 
Q 1441 -91 1130 -33 
Q 819 25 488 141 
L 488 750 
Q 750 597 1062 519 
Q 1375 441 1716 441 
Q 2309 441 2620 675 
Q 2931 909 2931 1356 
Q 2931 1769 2642 2001 
Q 2353 2234 1838 2234 
L 1294 2234 
L 1294 2753 
L 1863 2753 
Q 2328 2753 2575 2939 
Q 2822 3125 2822 3475 
Q 2822 3834 2567 4026 
Q 2313 4219 1838 4219 
Q 1578 4219 1281 4162 
Q 984 4106 628 3988 
L 628 4550 
Q 988 4650 1302 4700 
Q 1616 4750 1894 4750 
Q 2613 4750 3031 4423 
Q 3450 4097 3450 3541 
Q 3450 3153 3228 2886 
Q 3006 2619 2597 2516 
z
" id="DejaVuSans-33" transform="scale(0.015625)"/>
       </defs>
       <use xlink:href="#DejaVuSans-33"/>
       <use x="63.623047" xlink:href="#DejaVuSans-2e"/>
       <use x="95.410156" xlink:href="#DejaVuSans-30"/>
      </g>
     </g>
    </g>
    <g id="xtick_7">
     <g id="line2d_13">
      <path clip-path="url(#p2d6038a523)" d="M 774.61175 474.112 
L 774.61175 26.8 
" style="fill:none;stroke:#b0b0b0;stroke-linecap:square;stroke-width:0.8;"/>
     </g>
     <g id="line2d_14">
      <g>
       <use style="stroke:#000000;stroke-width:0.8;" x="774.61175" xlink:href="#m335e46448c" y="474.112"/>
      </g>
     </g>
     <g id="text_7">
      <!-- 3.5 -->
      <g transform="translate(766.660187 488.710438)scale(0.1 -0.1)">
       <use xlink:href="#DejaVuSans-33"/>
       <use x="63.623047" xlink:href="#DejaVuSans-2e"/>
       <use x="95.410156" xlink:href="#DejaVuSans-35"/>
      </g>
     </g>
    </g>
    <g id="text_8">
     <!-- Livello idrometrico h [m] -->
     <g transform="translate(387.211719 502.388563)scale(0.1 -0.1)">
      <defs>
       <path d="M 628 4666 
L 1259 4666 
L 1259 531 
L 3531 531 
L 3531 0 
L 628 0 
L 628 4666 
z
" id="DejaVuSans-4c" transform="scale(0.015625)"/>
       <path d="M 603 3500 
L 1178 3500 
L 1178 0 
L 603 0 
L 603 3500 
z
M 603 4863 
L 1178 4863 
L 1178 4134 
L 603 4134 
L 603 4863 
z
" id="DejaVuSans-69" transform="scale(0.015625)"/>
       <path d="M 191 3500 
L 800 3500 
L 1894 563 
L 2988 3500 
L 3597 3500 
L 2284 0 
L 1503 0 
L 191 3500 
z
" id="DejaVuSans-76" transform="scale(0.015625)"/>
       <path d="M 3597 1894 
L 3597 1613 
L 953 1613 
Q 991 1019 1311 708 
Q 1631 397 2203 397 
Q 2534 397 2845 478 
Q 3156 559 3463 722 
L 3463 178 
Q 3153 47 2828 -22 
Q 2503 -91 2169 -91 
Q 1331 -91 842 396 
Q 353 884 353 1716 
Q 353 2575 817 3079 
Q 1281 3584 2069 3584 
Q 2775 3584 3186 3129 
Q 3597 2675 3597 1894 
z
M 3022 2063 
Q 3016 2534 2758 2815 
Q 2500 3097 2075 3097 
Q 1594 3097 1305 2825 
Q 1016 2553 972 2059 
L 3022 2063 
z
" id="DejaVuSans-65" transform="scale(0.015625)"/>
       <path d="M 603 4863 
L 1178 4863 
L 1178 0 
L 603 0 
L 603 4863 
z
" id="DejaVuSans-6c" transform="scale(0.015625)"/>
       <path d="M 1959 3097 
Q 1497 3097 1228 2736 
Q 959 2375 959 1747 
Q 959 1119 1226 758 
Q 1494 397 1959 397 
Q 2419 397 2687 759 
Q 2956 1122 2956 1747 
Q 2956 2369 2687 2733 
Q 2419 3097 1959 3097 
z
M 1959 3584 
Q 2709 3584 3137 3096 
Q 3566 2609 3566 1747 
Q 3566 888 3137 398 
Q 2709 -91 1959 -91 
Q 1206 -91 779 398 
Q 353 888 353 1747 
Q 353 2609 779 3096 
Q 1206 3584 1959 3584 
z
" id="DejaVuSans-6f" transform="scale(0.015625)"/>
       <path id="DejaVuSans-20" transform="scale(0.015625)"/>
       <path d="M 2906 2969 
L 2906 4863 
L 3481 4863 
L 3481 0 
L 2906 0 
L 2906 525 
Q 2725 213 2448 61 
Q 2172 -91 1784 -91 
Q 1150 -91 751 415 
Q 353 922 353 1747 
Q 353 2572 751 3078 
Q 1150 3584 1784 3584 
Q 2172 3584 2448 3432 
Q 2725 3281 2906 2969 
z
M 947 1747 
Q 947 1113 1208 752 
Q 1469 391 1925 391 
Q 2381 391 2643 752 
Q 2906 1113 2906 1747 
Q 2906 2381 2643 2742 
Q 2381 3103 1925 3103 
Q 1469 3103 1208 2742 
Q 947 2381 947 1747 
z
" id="DejaVuSans-64" transform="scale(0.015625)"/>
       <path d="M 2631 2963 
Q 2534 3019 2420 3045 
Q 2306 3072 2169 3072 
Q 1681 3072 1420 2755 
Q 1159 2438 1159 1844 
L 1159 0 
L 581 0 
L 581 3500 
L 1159 3500 
L 1159 2956 
Q 1341 3275 1631 3429 
Q 1922 3584 2338 3584 
Q 2397 3584 2469 3576 
Q 2541 3569 2628 3553 
L 2631 2963 
z
" id="DejaVuSans-72" transform="scale(0.015625)"/>
       <path d="M 3328 2828 
Q 3544 3216 3844 3400 
Q 4144 3584 4550 3584 
Q 5097 3584 5394 3201 
Q 5691 2819 5691 2113 
L 5691 0 
L 5113 0 
L 5113 2094 
Q 5113 2597 4934 2840 
Q 4756 3084 4391 3084 
Q 3944 3084 3684 2787 
Q 3425 2491 3425 1978 
L 3425 0 
L 2847 0 
L 2847 2094 
Q 2847 2600 2669 2842 
Q 2491 3084 2119 3084 
Q 1678 3084 1418 2786 
Q 1159 2488 1159 1978 
L 1159 0 
L 581 0 
L 581 3500 
L 1159 3500 
L 1159 2956 
Q 1356 3278 1631 3431 
Q 1906 3584 2284 3584 
Q 2666 3584 2933 3390 
Q 3200 3197 3328 2828 
z
" id="DejaVuSans-6d" transform="scale(0.015625)"/>
       <path d="M 1172 4494 
L 1172 3500 
L 2356 3500 
L 2356 3053 
L 1172 3053 
L 1172 1153 
Q 1172 725 1289 603 
Q 1406 481 1766 481 
L 2356 481 
L 2356 0 
L 1766 0 
Q 1100 0 847 248 
Q 594 497 594 1153 
L 594 3053 
L 172 3053 
L 172 3500 
L 594 3500 
L 594 4494 
L 1172 4494 
z
" id="DejaVuSans-74" transform="scale(0.015625)"/>
       <path d="M 3122 3366 
L 3122 2828 
Q 2878 2963 2633 3030 
Q 2388 3097 2138 3097 
Q 1578 3097 1268 2742 
Q 959 2388 959 1747 
Q 959 1106 1268 751 
Q 1578 397 2138 397 
Q 2388 397 2633 464 
Q 2878 531 3122 666 
L 3122 134 
Q 2881 22 2623 -34 
Q 2366 -91 2075 -91 
Q 1284 -91 818 406 
Q 353 903 353 1747 
Q 353 2603 823 3093 
Q 1294 3584 2113 3584 
Q 2378 3584 2631 3529 
Q 2884 3475 3122 3366 
z
" id="DejaVuSans-63" transform="scale(0.015625)"/>
       <path d="M 3513 2113 
L 3513 0 
L 2938 0 
L 2938 2094 
Q 2938 2591 2744 2837 
Q 2550 3084 2163 3084 
Q 1697 3084 1428 2787 
Q 1159 2491 1159 1978 
L 1159 0 
L 581 0 
L 581 4863 
L 1159 4863 
L 1159 2956 
Q 1366 3272 1645 3428 
Q 1925 3584 2291 3584 
Q 2894 3584 3203 3211 
Q 3513 2838 3513 2113 
z
" id="DejaVuSans-68" transform="scale(0.015625)"/>
       <path d="M 550 4863 
L 1875 4863 
L 1875 4416 
L 1125 4416 
L 1125 -397 
L 1875 -397 
L 1875 -844 
L 550 -844 
L 550 4863 
z
" id="DejaVuSans-5b" transform="scale(0.015625)"/>
       <path d="M 1947 4863 
L 1947 -844 
L 622 -844 
L 622 -397 
L 1369 -397 
L 1369 4416 
L 622 4416 
L 622 4863 
L 1947 4863 
z
" id="DejaVuSans-5d" transform="scale(0.015625)"/>
      </defs>
      <use xlink:href="#DejaVuSans-4c"/>
      <use x="55.712891" xlink:href="#DejaVuSans-69"/>
      <use x="83.496094" xlink:href="#DejaVuSans-76"/>
      <use x="142.675781" xlink:href="#DejaVuSans-65"/>
      <use x="204.199219" xlink:href="#DejaVuSans-6c"/>
      <use x="231.982422" xlink:href="#DejaVuSans-6c"/>
      <use x="259.765625" xlink:href="#DejaVuSans-6f"/>
      <use x="320.947266" xlink:href="#DejaVuSans-20"/>
      <use x="352.734375" xlink:href="#DejaVuSans-69"/>
      <use x="380.517578" xlink:href="#DejaVuSans-64"/>
      <use x="443.994141" xlink:href="#DejaVuSans-72"/>
      <use x="482.857422" xlink:href="#DejaVuSans-6f"/>
      <use x="544.039062" xlink:href="#DejaVuSans-6d"/>
      <use x="641.451172" xlink:href="#DejaVuSans-65"/>
      <use x="702.974609" xlink:href="#DejaVuSans-74"/>
      <use x="742.183594" xlink:href="#DejaVuSans-72"/>
      <use x="783.296875" xlink:href="#DejaVuSans-69"/>
      <use x="811.080078" xlink:href="#DejaVuSans-63"/>
      <use x="866.060547" xlink:href="#DejaVuSans-6f"/>
      <use x="927.242188" xlink:href="#DejaVuSans-20"/>
      <use x="959.029297" xlink:href="#DejaVuSans-68"/>
      <use x="1022.408203" xlink:href="#DejaVuSans-20"/>
      <use x="1054.195312" xlink:href="#DejaVuSans-5b"/>
      <use x="1093.208984" xlink:href="#DejaVuSans-6d"/>
      <use x="1190.621094" xlink:href="#DejaVuSans-5d"/>
     </g>
    </g>
   </g>
   <g id="matplotlib.axis_2">
    <g id="ytick_1">
     <g id="line2d_15">
      <path clip-path="url(#p2d6038a523)" d="M 56.5375 464.642703 
L 840.85 464.642703 
" style="fill:none;stroke:#b0b0b0;stroke-linecap:square;stroke-width:0.8;"/>
     </g>
     <g id="line2d_16">
      <defs>
       <path d="M 0 0 
L -3.5 0 
" id="m6e664c7bfc" style="stroke:#000000;stroke-width:0.8;"/>
      </defs>
      <g>
       <use style="stroke:#000000;stroke-width:0.8;" x="56.5375" xlink:href="#m6e664c7bfc" y="464.642703"/>
      </g>
     </g>
     <g id="text_9">
      <!-- 0 -->
      <g transform="translate(43.175 468.441921)scale(0.1 -0.1)">
       <use xlink:href="#DejaVuSans-30"/>
      </g>
     </g>
    </g>
    <g id="ytick_2">
     <g id="line2d_17">
      <path clip-path="url(#p2d6038a523)" d="M 56.5375 369.949728 
L 840.85 369.949728 
" style="fill:none;stroke:#b0b0b0;stroke-linecap:square;stroke-width:0.8;"/>
     </g>
     <g id="line2d_18">
      <g>
       <use style="stroke:#000000;stroke-width:0.8;" x="56.5375" xlink:href="#m6e664c7bfc" y="369.949728"/>
      </g>
     </g>
     <g id="text_10">
      <!-- 50 -->
      <g transform="translate(36.8125 373.748946)scale(0.1 -0.1)">
       <use xlink:href="#DejaVuSans-35"/>
       <use x="63.623047" xlink:href="#DejaVuSans-30"/>
      </g>
     </g>
    </g>
    <g id="ytick_3">
     <g id="line2d_19">
      <path clip-path="url(#p2d6038a523)" d="M 56.5375 275.256753 
L 840.85 275.256753 
" style="fill:none;stroke:#b0b0b0;stroke-linecap:square;stroke-width:0.8;"/>
     </g>
     <g id="line2d_20">
      <g>
       <use style="stroke:#000000;stroke-width:0.8;" x="56.5375" xlink:href="#m6e664c7bfc" y="275.256753"/>
      </g>
     </g>
     <g id="text_11">
      <!-- 100 -->
      <g transform="translate(30.45 279.055972)scale(0.1 -0.1)">
       <use xlink:href="#DejaVuSans-31"/>
       <use x="63.623047" xlink:href="#DejaVuSans-30"/>
       <use x="127.246094" xlink:href="#DejaVuSans-30"/>
      </g>
     </g>
    </g>
    <g id="ytick_4">
     <g id="line2d_21">
      <path clip-path="url(#p2d6038a523)" d="M 56.5375 180.563778 
L 840.85 180.563778 
" style="fill:none;stroke:#b0b0b0;stroke-linecap:square;stroke-width:0.8;"/>
     </g>
     <g id="line2d_22">
      <g>
       <use style="stroke:#000000;stroke-width:0.8;" x="56.5375" xlink:href="#m6e664c7bfc" y="180.563778"/>
      </g>
     </g>
     <g id="text_12">
      <!-- 150 -->
      <g transform="translate(30.45 184.362997)scale(0.1 -0.1)">
       <use xlink:href="#DejaVuSans-31"/>
       <use x="63.623047" xlink:href="#DejaVuSans-35"/>
       <use x="127.246094" xlink:href="#DejaVuSans-30"/>
      </g>
     </g>
    </g>
    <g id="ytick_5">
     <g id="line2d_23">
      <path clip-path="url(#p2d6038a523)" d="M 56.5375 85.870803 
L 840.85 85.870803 
" style="fill:none;stroke:#b0b0b0;stroke-linecap:square;stroke-width:0.8;"/>
     </g>
     <g id="line2d_24">
      <g>
       <use style="stroke:#000000;stroke-width:0.8;" x="56.5375" xlink:href="#m6e664c7bfc" y="85.870803"/>
      </g>
     </g>
     <g id="text_13">
      <!-- 200 -->
      <g transform="translate(30.45 89.670022)scale(0.1 -0.1)">
       <use xlink:href="#DejaVuSans-32"/>
       <use x="63.623047" xlink:href="#DejaVuSans-30"/>
       <use x="127.246094" xlink:href="#DejaVuSans-30"/>
      </g>
     </g>
    </g>
    <g id="text_14">
     <!-- $Portate \quad Q \quad [m^3/s]$ -->
     <g transform="translate(24.370313 298.006)rotate(-90)scale(0.1 -0.1)">
      <defs>
       <path d="M 1081 4666 
L 2541 4666 
Q 3178 4666 3512 4369 
Q 3847 4072 3847 3500 
Q 3847 2731 3353 2303 
Q 2859 1875 1966 1875 
L 1172 1875 
L 806 0 
L 172 0 
L 1081 4666 
z
M 1613 4147 
L 1275 2394 
L 2069 2394 
Q 2606 2394 2893 2669 
Q 3181 2944 3181 3456 
Q 3181 3784 2986 3965 
Q 2791 4147 2438 4147 
L 1613 4147 
z
" id="DejaVuSans-Oblique-50" transform="scale(0.015625)"/>
       <path d="M 1625 -91 
Q 1009 -91 651 289 
Q 294 669 294 1325 
Q 294 1706 417 2101 
Q 541 2497 738 2766 
Q 1047 3184 1428 3384 
Q 1809 3584 2291 3584 
Q 2888 3584 3255 3212 
Q 3622 2841 3622 2241 
Q 3622 1825 3500 1412 
Q 3378 1000 3181 728 
Q 2875 309 2494 109 
Q 2113 -91 1625 -91 
z
M 891 1344 
Q 891 869 1089 633 
Q 1288 397 1691 397 
Q 2269 397 2648 901 
Q 3028 1406 3028 2181 
Q 3028 2634 2825 2865 
Q 2622 3097 2228 3097 
Q 1903 3097 1650 2945 
Q 1397 2794 1197 2484 
Q 1050 2253 970 1956 
Q 891 1659 891 1344 
z
" id="DejaVuSans-Oblique-6f" transform="scale(0.015625)"/>
       <path d="M 2853 2969 
Q 2766 3016 2653 3041 
Q 2541 3066 2413 3066 
Q 1953 3066 1609 2717 
Q 1266 2369 1153 1784 
L 800 0 
L 225 0 
L 909 3500 
L 1484 3500 
L 1375 2956 
Q 1603 3259 1920 3421 
Q 2238 3584 2597 3584 
Q 2691 3584 2781 3573 
Q 2872 3563 2963 3538 
L 2853 2969 
z
" id="DejaVuSans-Oblique-72" transform="scale(0.015625)"/>
       <path d="M 2706 3500 
L 2619 3053 
L 1472 3053 
L 1100 1153 
Q 1081 1047 1072 975 
Q 1063 903 1063 863 
Q 1063 663 1183 572 
Q 1303 481 1569 481 
L 2150 481 
L 2053 0 
L 1503 0 
Q 991 0 739 200 
Q 488 400 488 806 
Q 488 878 497 964 
Q 506 1050 525 1153 
L 897 3053 
L 409 3053 
L 500 3500 
L 978 3500 
L 1172 4494 
L 1747 4494 
L 1556 3500 
L 2706 3500 
z
" id="DejaVuSans-Oblique-74" transform="scale(0.015625)"/>
       <path d="M 3438 1997 
L 3047 0 
L 2472 0 
L 2578 531 
Q 2325 219 2001 64 
Q 1678 -91 1281 -91 
Q 834 -91 548 182 
Q 263 456 263 884 
Q 263 1497 752 1853 
Q 1241 2209 2100 2209 
L 2900 2209 
L 2931 2363 
Q 2938 2388 2941 2417 
Q 2944 2447 2944 2509 
Q 2944 2788 2717 2942 
Q 2491 3097 2081 3097 
Q 1800 3097 1504 3025 
Q 1209 2953 897 2809 
L 997 3341 
Q 1322 3463 1633 3523 
Q 1944 3584 2234 3584 
Q 2853 3584 3176 3315 
Q 3500 3047 3500 2534 
Q 3500 2431 3484 2292 
Q 3469 2153 3438 1997 
z
M 2816 1759 
L 2241 1759 
Q 1534 1759 1195 1570 
Q 856 1381 856 984 
Q 856 709 1029 553 
Q 1203 397 1509 397 
Q 1978 397 2328 733 
Q 2678 1069 2791 1631 
L 2816 1759 
z
" id="DejaVuSans-Oblique-61" transform="scale(0.015625)"/>
       <path d="M 3078 2063 
Q 3088 2113 3092 2166 
Q 3097 2219 3097 2272 
Q 3097 2653 2873 2875 
Q 2650 3097 2266 3097 
Q 1838 3097 1509 2826 
Q 1181 2556 1013 2059 
L 3078 2063 
z
M 3578 1613 
L 903 1613 
Q 884 1494 878 1425 
Q 872 1356 872 1306 
Q 872 872 1139 634 
Q 1406 397 1894 397 
Q 2269 397 2603 481 
Q 2938 566 3225 728 
L 3116 159 
Q 2806 34 2476 -28 
Q 2147 -91 1806 -91 
Q 1078 -91 686 257 
Q 294 606 294 1247 
Q 294 1794 489 2264 
Q 684 2734 1063 3103 
Q 1306 3334 1642 3459 
Q 1978 3584 2356 3584 
Q 2950 3584 3301 3228 
Q 3653 2872 3653 2272 
Q 3653 2128 3634 1964 
Q 3616 1800 3578 1613 
z
" id="DejaVuSans-Oblique-65" transform="scale(0.015625)"/>
       <path d="M 2309 -84 
Q 2275 -88 2237 -89 
Q 2200 -91 2125 -91 
Q 1250 -91 756 411 
Q 263 913 263 1797 
Q 263 2319 452 2844 
Q 641 3369 978 3788 
Q 1369 4269 1858 4509 
Q 2347 4750 2938 4750 
Q 3794 4750 4287 4245 
Q 4781 3741 4781 2869 
Q 4781 1928 4265 1147 
Q 3750 366 2919 44 
L 3553 -825 
L 2847 -825 
L 2309 -84 
z
M 2919 4238 
Q 2400 4238 2003 3986 
Q 1606 3734 1313 3219 
Q 1125 2891 1026 2522 
Q 928 2153 928 1778 
Q 928 1128 1239 775 
Q 1550 422 2119 422 
Q 2631 422 3032 676 
Q 3434 931 3719 1434 
Q 3909 1772 4009 2142 
Q 4109 2513 4109 2881 
Q 4109 3528 3796 3883 
Q 3484 4238 2919 4238 
z
" id="DejaVuSans-Oblique-51" transform="scale(0.015625)"/>
       <path d="M 5747 2113 
L 5338 0 
L 4763 0 
L 5166 2094 
Q 5191 2228 5203 2325 
Q 5216 2422 5216 2491 
Q 5216 2772 5059 2928 
Q 4903 3084 4622 3084 
Q 4203 3084 3875 2770 
Q 3547 2456 3450 1953 
L 3066 0 
L 2491 0 
L 2900 2094 
Q 2925 2209 2937 2307 
Q 2950 2406 2950 2484 
Q 2950 2769 2794 2926 
Q 2638 3084 2363 3084 
Q 1938 3084 1609 2770 
Q 1281 2456 1184 1953 
L 800 0 
L 225 0 
L 909 3500 
L 1484 3500 
L 1375 2956 
Q 1609 3263 1923 3423 
Q 2238 3584 2597 3584 
Q 2978 3584 3223 3384 
Q 3469 3184 3519 2828 
Q 3781 3197 4126 3390 
Q 4472 3584 4856 3584 
Q 5306 3584 5551 3325 
Q 5797 3066 5797 2591 
Q 5797 2488 5784 2364 
Q 5772 2241 5747 2113 
z
" id="DejaVuSans-Oblique-6d" transform="scale(0.015625)"/>
       <path d="M 1625 4666 
L 2156 4666 
L 531 -594 
L 0 -594 
L 1625 4666 
z
" id="DejaVuSans-2f" transform="scale(0.015625)"/>
       <path d="M 3200 3397 
L 3091 2853 
Q 2863 2978 2609 3040 
Q 2356 3103 2088 3103 
Q 1634 3103 1373 2948 
Q 1113 2794 1113 2528 
Q 1113 2219 1719 2053 
Q 1766 2041 1788 2034 
L 1972 1978 
Q 2547 1819 2739 1644 
Q 2931 1469 2931 1166 
Q 2931 609 2489 259 
Q 2047 -91 1331 -91 
Q 1053 -91 747 -37 
Q 441 16 72 128 
L 184 722 
Q 500 559 806 475 
Q 1113 391 1394 391 
Q 1816 391 2080 572 
Q 2344 753 2344 1031 
Q 2344 1331 1650 1516 
L 1591 1531 
L 1394 1581 
Q 956 1697 753 1886 
Q 550 2075 550 2369 
Q 550 2928 970 3256 
Q 1391 3584 2113 3584 
Q 2397 3584 2667 3537 
Q 2938 3491 3200 3397 
z
" id="DejaVuSans-Oblique-73" transform="scale(0.015625)"/>
      </defs>
      <use transform="translate(0 0.765625)" xlink:href="#DejaVuSans-Oblique-50"/>
      <use transform="translate(60.302734 0.765625)" xlink:href="#DejaVuSans-Oblique-6f"/>
      <use transform="translate(121.484375 0.765625)" xlink:href="#DejaVuSans-Oblique-72"/>
      <use transform="translate(162.597656 0.765625)" xlink:href="#DejaVuSans-Oblique-74"/>
      <use transform="translate(201.806641 0.765625)" xlink:href="#DejaVuSans-Oblique-61"/>
      <use transform="translate(263.085938 0.765625)" xlink:href="#DejaVuSans-Oblique-74"/>
      <use transform="translate(302.294922 0.765625)" xlink:href="#DejaVuSans-Oblique-65"/>
      <use transform="translate(461.230469 0.765625)" xlink:href="#DejaVuSans-Oblique-51"/>
      <use transform="translate(637.353516 0.765625)" xlink:href="#DejaVuSans-5b"/>
      <use transform="translate(676.367188 0.765625)" xlink:href="#DejaVuSans-Oblique-6d"/>
      <use transform="translate(778.429193 39.046875)scale(0.7)" xlink:href="#DejaVuSans-33"/>
      <use transform="translate(825.699701 0.765625)" xlink:href="#DejaVuSans-2f"/>
      <use transform="translate(859.391107 0.765625)" xlink:href="#DejaVuSans-Oblique-73"/>
      <use transform="translate(911.490716 0.765625)" xlink:href="#DejaVuSans-5d"/>
     </g>
    </g>
   </g>
   <g id="LineCollection_1">
    <path clip-path="url(#p2d6038a523)" d="M 358.176203 502.519892 
L 358.176203 -1 
" style="fill:none;stroke:#ff0000;stroke-dasharray:7.4,3.2;stroke-dashoffset:0;stroke-width:2;"/>
   </g>
   <g id="line2d_25">
    <defs>
     <path d="M 0 3 
C 0.795609 3 1.55874 2.683901 2.12132 2.12132 
C 2.683901 1.55874 3 0.795609 3 0 
C 3 -0.795609 2.683901 -1.55874 2.12132 -2.12132 
C 1.55874 -2.683901 0.795609 -3 0 -3 
C -0.795609 -3 -1.55874 -2.683901 -2.12132 -2.12132 
C -2.683901 -1.55874 -3 -0.795609 -3 0 
C -3 0.795609 -2.683901 1.55874 -2.12132 2.12132 
C -1.55874 2.683901 -0.795609 3 0 3 
z
" id="m32f3fd5a5f" style="stroke:#0000ff;"/>
    </defs>
    <g clip-path="url(#p2d6038a523)">
     <use style="fill:#0000ff;stroke:#0000ff;" x="113.487921" xlink:href="#m32f3fd5a5f" y="464.582099"/>
     <use style="fill:#0000ff;stroke:#0000ff;" x="137.01546" xlink:href="#m32f3fd5a5f" y="464.294232"/>
     <use style="fill:#0000ff;stroke:#0000ff;" x="165.248506" xlink:href="#m32f3fd5a5f" y="463.457146"/>
     <use style="fill:#0000ff;stroke:#0000ff;" x="198.187059" xlink:href="#m32f3fd5a5f" y="462.091674"/>
     <use style="fill:#0000ff;stroke:#0000ff;" x="213.479959" xlink:href="#m32f3fd5a5f" y="460.478105"/>
     <use style="fill:#0000ff;stroke:#0000ff;" x="213.479959" xlink:href="#m32f3fd5a5f" y="460.438334"/>
     <use style="fill:#0000ff;stroke:#0000ff;" x="224.067352" xlink:href="#m32f3fd5a5f" y="460.09744"/>
     <use style="fill:#0000ff;stroke:#0000ff;" x="229.949236" xlink:href="#m32f3fd5a5f" y="459.603142"/>
     <use style="fill:#0000ff;stroke:#0000ff;" x="261.711413" xlink:href="#m32f3fd5a5f" y="455.686641"/>
     <use style="fill:#0000ff;stroke:#0000ff;" x="315.824751" xlink:href="#m32f3fd5a5f" y="452.103459"/>
     <use style="fill:#0000ff;stroke:#0000ff;" x="358.17432" xlink:href="#m32f3fd5a5f" y="434.56632"/>
     <use style="fill:#0000ff;stroke:#0000ff;" x="454.637228" xlink:href="#m32f3fd5a5f" y="418.498816"/>
     <use style="fill:#0000ff;stroke:#0000ff;" x="496.986797" xlink:href="#m32f3fd5a5f" y="390.2216"/>
     <use style="fill:#0000ff;stroke:#0000ff;" x="558.158397" xlink:href="#m32f3fd5a5f" y="326.769731"/>
     <use style="fill:#0000ff;stroke:#0000ff;" x="607.566227" xlink:href="#m32f3fd5a5f" y="349.117273"/>
     <use style="fill:#0000ff;stroke:#0000ff;" x="659.326812" xlink:href="#m32f3fd5a5f" y="259.647563"/>
     <use style="fill:#0000ff;stroke:#0000ff;" x="689.912612" xlink:href="#m32f3fd5a5f" y="229.080671"/>
     <use style="fill:#0000ff;stroke:#0000ff;" x="692.265365" xlink:href="#m32f3fd5a5f" y="220.082944"/>
     <use style="fill:#0000ff;stroke:#0000ff;" x="748.731457" xlink:href="#m32f3fd5a5f" y="140.23404"/>
     <use style="fill:#0000ff;stroke:#0000ff;" x="765.200734" xlink:href="#m32f3fd5a5f" y="127.840624"/>
    </g>
   </g>
   <g id="line2d_26">
    <path clip-path="url(#p2d6038a523)" d="M 92.188068 464.642703 
L 94.540822 464.642387 
L 96.893576 464.641056 
L 99.24633 464.638369 
L 101.599084 464.634094 
L 103.951837 464.628041 
L 106.304591 464.620051 
L 108.657345 464.609981 
L 111.010099 464.597704 
L 113.362853 464.583102 
L 115.715607 464.566067 
L 118.06836 464.546498 
L 120.421114 464.5243 
L 122.773868 464.499384 
L 125.126622 464.471663 
L 127.479376 464.441057 
L 129.83213 464.407487 
L 132.184883 464.370878 
L 134.537637 464.33116 
L 136.890391 464.288261 
L 139.243145 464.242116 
L 141.595899 464.192659 
L 143.948653 464.139827 
L 146.301406 464.08356 
L 148.65416 464.023796 
L 151.006914 463.96048 
L 153.359668 463.893554 
L 155.712422 463.822963 
L 158.065176 463.748653 
L 160.417929 463.670572 
L 162.770683 463.588669 
L 165.123437 463.502892 
L 167.476191 463.413194 
L 169.828945 463.319524 
L 172.181699 463.221836 
L 174.534453 463.120084 
L 176.887206 463.014221 
L 179.23996 462.904202 
L 181.592714 462.789984 
L 183.945468 462.671523 
L 186.298222 462.548776 
L 188.650976 462.421701 
L 191.003729 462.290257 
L 193.356483 462.154403 
L 195.709237 462.014097 
L 198.061991 461.869302 
L 200.414745 461.719978 
L 202.767499 461.566085 
L 205.120252 461.407587 
L 207.473006 461.244445 
L 209.82576 461.076623 
L 212.178514 460.904083 
L 214.531268 460.72679 
L 216.884022 460.544707 
L 219.236775 460.3578 
L 221.589529 460.166033 
L 223.942283 459.969372 
L 226.295037 459.767783 
L 228.647791 459.561232 
L 231.000545 459.349685 
L 233.353298 459.13311 
L 235.706052 458.911474 
L 238.058806 458.684743 
L 240.41156 458.452887 
L 242.764314 458.215874 
L 245.117068 457.973672 
L 247.469822 457.726249 
L 249.822575 457.473576 
L 252.175329 457.215621 
L 254.528083 456.952354 
L 256.880837 456.683745 
L 259.233591 456.409765 
L 261.586345 456.130383 
L 263.939098 455.845572 
L 266.291852 455.555301 
L 268.644606 455.259541 
L 270.99736 454.958266 
L 273.350114 454.651445 
L 275.702868 454.339051 
L 278.055621 454.021057 
L 280.408375 453.697434 
L 282.761129 453.368156 
L 285.113883 453.033195 
L 287.466637 452.692523 
L 289.819391 452.346115 
L 292.172144 451.993944 
L 294.524898 451.635983 
L 296.877652 451.272206 
L 299.230406 450.902587 
L 301.58316 450.527101 
L 303.935914 450.145721 
L 306.288667 449.758422 
L 308.641421 449.365179 
L 310.994175 448.965967 
L 313.346929 448.56076 
L 315.699683 448.149535 
L 318.052437 447.732266 
L 320.405191 447.308928 
L 322.757944 446.879499 
L 325.110698 446.443952 
L 327.463452 446.002265 
L 329.816206 445.554413 
L 332.16896 445.100373 
L 334.521714 444.640122 
L 336.874467 444.173634 
L 339.227221 443.700889 
L 341.579975 443.221861 
L 343.932729 442.736529 
L 346.285483 442.244869 
L 348.638237 441.746859 
L 350.99099 441.242475 
L 353.343744 440.731696 
L 355.696498 440.214499 
L 358.049252 439.690862 
" style="fill:none;stroke:#ff0000;stroke-linecap:square;stroke-width:1.5;"/>
   </g>
   <g id="line2d_27">
    <path clip-path="url(#p2d6038a523)" d="M 358.176203 439.662424 
L 365.234464 439.501037 
L 372.292726 439.073357 
L 379.350987 438.406141 
L 386.409249 437.512308 
L 393.46751 436.400447 
L 400.525772 435.076949 
L 407.584033 433.546883 
L 414.642295 431.814431 
L 421.700556 429.883143 
L 428.758818 427.756098 
L 435.817079 425.436006 
L 442.875341 422.925287 
L 449.933602 420.226122 
L 456.991864 417.340495 
L 464.050125 414.270225 
L 473.461141 409.892189 
L 482.872156 405.192507 
L 492.283171 400.174502 
L 501.694187 394.84122 
L 511.105202 389.195476 
L 520.516217 383.239882 
L 529.927233 376.976875 
L 539.338248 370.408735 
L 548.749263 363.537607 
L 558.160279 356.365511 
L 567.571294 348.894358 
L 576.982309 341.125961 
L 586.393325 333.06204 
L 595.80434 324.704236 
L 605.215356 316.054114 
L 614.626371 307.113171 
L 624.037386 297.882838 
L 633.448402 288.364491 
L 642.859417 278.55945 
L 652.270432 268.468986 
L 661.681448 258.094324 
L 671.092463 247.436642 
L 680.503478 236.49708 
L 689.914494 225.27674 
L 699.325509 213.776688 
L 711.089278 199.009845 
L 722.853047 183.809507 
L 734.616817 168.177548 
L 746.380586 152.115774 
L 758.144355 135.625929 
L 769.908124 118.709698 
L 781.671893 101.368711 
L 793.435663 83.604546 
L 805.199432 65.418731 
L 805.199432 65.418731 
" style="fill:none;stroke:#008000;stroke-linecap:square;stroke-width:1.5;"/>
   </g>
   <g id="patch_3">
    <path d="M 56.5375 474.112 
L 56.5375 26.8 
" style="fill:none;stroke:#000000;stroke-linecap:square;stroke-linejoin:miter;stroke-width:0.8;"/>
   </g>
   <g id="patch_4">
    <path d="M 840.85 474.112 
L 840.85 26.8 
" style="fill:none;stroke:#000000;stroke-linecap:square;stroke-linejoin:miter;stroke-width:0.8;"/>
   </g>
   <g id="patch_5">
    <path d="M 56.5375 474.112 
L 840.85 474.112 
" style="fill:none;stroke:#000000;stroke-linecap:square;stroke-linejoin:miter;stroke-width:0.8;"/>
   </g>
   <g id="patch_6">
    <path d="M 56.5375 26.8 
L 840.85 26.8 
" style="fill:none;stroke:#000000;stroke-linecap:square;stroke-linejoin:miter;stroke-width:0.8;"/>
   </g>
   <g id="text_15">
    <!-- N=20 -->
    <g transform="translate(790.860625 451.7464)scale(0.12 -0.12)">
     <defs>
      <path d="M 628 4666 
L 1478 4666 
L 3547 763 
L 3547 4666 
L 4159 4666 
L 4159 0 
L 3309 0 
L 1241 3903 
L 1241 0 
L 628 0 
L 628 4666 
z
" id="DejaVuSans-4e" transform="scale(0.015625)"/>
      <path d="M 678 2906 
L 4684 2906 
L 4684 2381 
L 678 2381 
L 678 2906 
z
M 678 1631 
L 4684 1631 
L 4684 1100 
L 678 1100 
L 678 1631 
z
" id="DejaVuSans-3d" transform="scale(0.015625)"/>
     </defs>
     <use xlink:href="#DejaVuSans-4e"/>
     <use x="74.804688" xlink:href="#DejaVuSans-3d"/>
     <use x="158.59375" xlink:href="#DejaVuSans-32"/>
     <use x="222.216797" xlink:href="#DejaVuSans-30"/>
    </g>
   </g>
   <g id="text_16">
    <!-- Scala deflusso F35 Flumineddu a Allai RF - Aggiornamento Maggio 2022 -->
    <g transform="translate(232.471563 20.8)scale(0.12 -0.12)">
     <defs>
      <path d="M 3425 4513 
L 3425 3897 
Q 3066 4069 2747 4153 
Q 2428 4238 2131 4238 
Q 1616 4238 1336 4038 
Q 1056 3838 1056 3469 
Q 1056 3159 1242 3001 
Q 1428 2844 1947 2747 
L 2328 2669 
Q 3034 2534 3370 2195 
Q 3706 1856 3706 1288 
Q 3706 609 3251 259 
Q 2797 -91 1919 -91 
Q 1588 -91 1214 -16 
Q 841 59 441 206 
L 441 856 
Q 825 641 1194 531 
Q 1563 422 1919 422 
Q 2459 422 2753 634 
Q 3047 847 3047 1241 
Q 3047 1584 2836 1778 
Q 2625 1972 2144 2069 
L 1759 2144 
Q 1053 2284 737 2584 
Q 422 2884 422 3419 
Q 422 4038 858 4394 
Q 1294 4750 2059 4750 
Q 2388 4750 2728 4690 
Q 3069 4631 3425 4513 
z
" id="DejaVuSans-53" transform="scale(0.015625)"/>
      <path d="M 2194 1759 
Q 1497 1759 1228 1600 
Q 959 1441 959 1056 
Q 959 750 1161 570 
Q 1363 391 1709 391 
Q 2188 391 2477 730 
Q 2766 1069 2766 1631 
L 2766 1759 
L 2194 1759 
z
M 3341 1997 
L 3341 0 
L 2766 0 
L 2766 531 
Q 2569 213 2275 61 
Q 1981 -91 1556 -91 
Q 1019 -91 701 211 
Q 384 513 384 1019 
Q 384 1609 779 1909 
Q 1175 2209 1959 2209 
L 2766 2209 
L 2766 2266 
Q 2766 2663 2505 2880 
Q 2244 3097 1772 3097 
Q 1472 3097 1187 3025 
Q 903 2953 641 2809 
L 641 3341 
Q 956 3463 1253 3523 
Q 1550 3584 1831 3584 
Q 2591 3584 2966 3190 
Q 3341 2797 3341 1997 
z
" id="DejaVuSans-61" transform="scale(0.015625)"/>
      <path d="M 2375 4863 
L 2375 4384 
L 1825 4384 
Q 1516 4384 1395 4259 
Q 1275 4134 1275 3809 
L 1275 3500 
L 2222 3500 
L 2222 3053 
L 1275 3053 
L 1275 0 
L 697 0 
L 697 3053 
L 147 3053 
L 147 3500 
L 697 3500 
L 697 3744 
Q 697 4328 969 4595 
Q 1241 4863 1831 4863 
L 2375 4863 
z
" id="DejaVuSans-66" transform="scale(0.015625)"/>
      <path d="M 544 1381 
L 544 3500 
L 1119 3500 
L 1119 1403 
Q 1119 906 1312 657 
Q 1506 409 1894 409 
Q 2359 409 2629 706 
Q 2900 1003 2900 1516 
L 2900 3500 
L 3475 3500 
L 3475 0 
L 2900 0 
L 2900 538 
Q 2691 219 2414 64 
Q 2138 -91 1772 -91 
Q 1169 -91 856 284 
Q 544 659 544 1381 
z
M 1991 3584 
L 1991 3584 
z
" id="DejaVuSans-75" transform="scale(0.015625)"/>
      <path d="M 2834 3397 
L 2834 2853 
Q 2591 2978 2328 3040 
Q 2066 3103 1784 3103 
Q 1356 3103 1142 2972 
Q 928 2841 928 2578 
Q 928 2378 1081 2264 
Q 1234 2150 1697 2047 
L 1894 2003 
Q 2506 1872 2764 1633 
Q 3022 1394 3022 966 
Q 3022 478 2636 193 
Q 2250 -91 1575 -91 
Q 1294 -91 989 -36 
Q 684 19 347 128 
L 347 722 
Q 666 556 975 473 
Q 1284 391 1588 391 
Q 1994 391 2212 530 
Q 2431 669 2431 922 
Q 2431 1156 2273 1281 
Q 2116 1406 1581 1522 
L 1381 1569 
Q 847 1681 609 1914 
Q 372 2147 372 2553 
Q 372 3047 722 3315 
Q 1072 3584 1716 3584 
Q 2034 3584 2315 3537 
Q 2597 3491 2834 3397 
z
" id="DejaVuSans-73" transform="scale(0.015625)"/>
      <path d="M 628 4666 
L 3309 4666 
L 3309 4134 
L 1259 4134 
L 1259 2759 
L 3109 2759 
L 3109 2228 
L 1259 2228 
L 1259 0 
L 628 0 
L 628 4666 
z
" id="DejaVuSans-46" transform="scale(0.015625)"/>
      <path d="M 3513 2113 
L 3513 0 
L 2938 0 
L 2938 2094 
Q 2938 2591 2744 2837 
Q 2550 3084 2163 3084 
Q 1697 3084 1428 2787 
Q 1159 2491 1159 1978 
L 1159 0 
L 581 0 
L 581 3500 
L 1159 3500 
L 1159 2956 
Q 1366 3272 1645 3428 
Q 1925 3584 2291 3584 
Q 2894 3584 3203 3211 
Q 3513 2838 3513 2113 
z
" id="DejaVuSans-6e" transform="scale(0.015625)"/>
      <path d="M 2188 4044 
L 1331 1722 
L 3047 1722 
L 2188 4044 
z
M 1831 4666 
L 2547 4666 
L 4325 0 
L 3669 0 
L 3244 1197 
L 1141 1197 
L 716 0 
L 50 0 
L 1831 4666 
z
" id="DejaVuSans-41" transform="scale(0.015625)"/>
      <path d="M 2841 2188 
Q 3044 2119 3236 1894 
Q 3428 1669 3622 1275 
L 4263 0 
L 3584 0 
L 2988 1197 
Q 2756 1666 2539 1819 
Q 2322 1972 1947 1972 
L 1259 1972 
L 1259 0 
L 628 0 
L 628 4666 
L 2053 4666 
Q 2853 4666 3247 4331 
Q 3641 3997 3641 3322 
Q 3641 2881 3436 2590 
Q 3231 2300 2841 2188 
z
M 1259 4147 
L 1259 2491 
L 2053 2491 
Q 2509 2491 2742 2702 
Q 2975 2913 2975 3322 
Q 2975 3731 2742 3939 
Q 2509 4147 2053 4147 
L 1259 4147 
z
" id="DejaVuSans-52" transform="scale(0.015625)"/>
      <path d="M 313 2009 
L 1997 2009 
L 1997 1497 
L 313 1497 
L 313 2009 
z
" id="DejaVuSans-2d" transform="scale(0.015625)"/>
      <path d="M 2906 1791 
Q 2906 2416 2648 2759 
Q 2391 3103 1925 3103 
Q 1463 3103 1205 2759 
Q 947 2416 947 1791 
Q 947 1169 1205 825 
Q 1463 481 1925 481 
Q 2391 481 2648 825 
Q 2906 1169 2906 1791 
z
M 3481 434 
Q 3481 -459 3084 -895 
Q 2688 -1331 1869 -1331 
Q 1566 -1331 1297 -1286 
Q 1028 -1241 775 -1147 
L 775 -588 
Q 1028 -725 1275 -790 
Q 1522 -856 1778 -856 
Q 2344 -856 2625 -561 
Q 2906 -266 2906 331 
L 2906 616 
Q 2728 306 2450 153 
Q 2172 0 1784 0 
Q 1141 0 747 490 
Q 353 981 353 1791 
Q 353 2603 747 3093 
Q 1141 3584 1784 3584 
Q 2172 3584 2450 3431 
Q 2728 3278 2906 2969 
L 2906 3500 
L 3481 3500 
L 3481 434 
z
" id="DejaVuSans-67" transform="scale(0.015625)"/>
      <path d="M 628 4666 
L 1569 4666 
L 2759 1491 
L 3956 4666 
L 4897 4666 
L 4897 0 
L 4281 0 
L 4281 4097 
L 3078 897 
L 2444 897 
L 1241 4097 
L 1241 0 
L 628 0 
L 628 4666 
z
" id="DejaVuSans-4d" transform="scale(0.015625)"/>
     </defs>
     <use xlink:href="#DejaVuSans-53"/>
     <use x="63.476562" xlink:href="#DejaVuSans-63"/>
     <use x="118.457031" xlink:href="#DejaVuSans-61"/>
     <use x="179.736328" xlink:href="#DejaVuSans-6c"/>
     <use x="207.519531" xlink:href="#DejaVuSans-61"/>
     <use x="268.798828" xlink:href="#DejaVuSans-20"/>
     <use x="300.585938" xlink:href="#DejaVuSans-64"/>
     <use x="364.0625" xlink:href="#DejaVuSans-65"/>
     <use x="425.585938" xlink:href="#DejaVuSans-66"/>
     <use x="460.791016" xlink:href="#DejaVuSans-6c"/>
     <use x="488.574219" xlink:href="#DejaVuSans-75"/>
     <use x="551.953125" xlink:href="#DejaVuSans-73"/>
     <use x="604.052734" xlink:href="#DejaVuSans-73"/>
     <use x="656.152344" xlink:href="#DejaVuSans-6f"/>
     <use x="717.333984" xlink:href="#DejaVuSans-20"/>
     <use x="749.121094" xlink:href="#DejaVuSans-46"/>
     <use x="806.640625" xlink:href="#DejaVuSans-33"/>
     <use x="870.263672" xlink:href="#DejaVuSans-35"/>
     <use x="933.886719" xlink:href="#DejaVuSans-20"/>
     <use x="965.673828" xlink:href="#DejaVuSans-46"/>
     <use x="1023.193359" xlink:href="#DejaVuSans-6c"/>
     <use x="1050.976562" xlink:href="#DejaVuSans-75"/>
     <use x="1114.355469" xlink:href="#DejaVuSans-6d"/>
     <use x="1211.767578" xlink:href="#DejaVuSans-69"/>
     <use x="1239.550781" xlink:href="#DejaVuSans-6e"/>
     <use x="1302.929688" xlink:href="#DejaVuSans-65"/>
     <use x="1364.453125" xlink:href="#DejaVuSans-64"/>
     <use x="1427.929688" xlink:href="#DejaVuSans-64"/>
     <use x="1491.40625" xlink:href="#DejaVuSans-75"/>
     <use x="1554.785156" xlink:href="#DejaVuSans-20"/>
     <use x="1586.572266" xlink:href="#DejaVuSans-61"/>
     <use x="1647.851562" xlink:href="#DejaVuSans-20"/>
     <use x="1679.638672" xlink:href="#DejaVuSans-41"/>
     <use x="1748.046875" xlink:href="#DejaVuSans-6c"/>
     <use x="1775.830078" xlink:href="#DejaVuSans-6c"/>
     <use x="1803.613281" xlink:href="#DejaVuSans-61"/>
     <use x="1864.892578" xlink:href="#DejaVuSans-69"/>
     <use x="1892.675781" xlink:href="#DejaVuSans-20"/>
     <use x="1924.462891" xlink:href="#DejaVuSans-52"/>
     <use x="1993.945312" xlink:href="#DejaVuSans-46"/>
     <use x="2051.464844" xlink:href="#DejaVuSans-20"/>
     <use x="2083.251953" xlink:href="#DejaVuSans-2d"/>
     <use x="2119.335938" xlink:href="#DejaVuSans-20"/>
     <use x="2151.123047" xlink:href="#DejaVuSans-41"/>
     <use x="2219.53125" xlink:href="#DejaVuSans-67"/>
     <use x="2283.007812" xlink:href="#DejaVuSans-67"/>
     <use x="2346.484375" xlink:href="#DejaVuSans-69"/>
     <use x="2374.267578" xlink:href="#DejaVuSans-6f"/>
     <use x="2435.449219" xlink:href="#DejaVuSans-72"/>
     <use x="2474.8125" xlink:href="#DejaVuSans-6e"/>
     <use x="2538.191406" xlink:href="#DejaVuSans-61"/>
     <use x="2599.470703" xlink:href="#DejaVuSans-6d"/>
     <use x="2696.882812" xlink:href="#DejaVuSans-65"/>
     <use x="2758.40625" xlink:href="#DejaVuSans-6e"/>
     <use x="2821.785156" xlink:href="#DejaVuSans-74"/>
     <use x="2860.994141" xlink:href="#DejaVuSans-6f"/>
     <use x="2922.175781" xlink:href="#DejaVuSans-20"/>
     <use x="2953.962891" xlink:href="#DejaVuSans-4d"/>
     <use x="3040.242188" xlink:href="#DejaVuSans-61"/>
     <use x="3101.521484" xlink:href="#DejaVuSans-67"/>
     <use x="3164.998047" xlink:href="#DejaVuSans-67"/>
     <use x="3228.474609" xlink:href="#DejaVuSans-69"/>
     <use x="3256.257812" xlink:href="#DejaVuSans-6f"/>
     <use x="3317.439453" xlink:href="#DejaVuSans-20"/>
     <use x="3349.226562" xlink:href="#DejaVuSans-32"/>
     <use x="3412.849609" xlink:href="#DejaVuSans-30"/>
     <use x="3476.472656" xlink:href="#DejaVuSans-32"/>
     <use x="3540.095703" xlink:href="#DejaVuSans-32"/>
    </g>
   </g>
   <g id="legend_1">
    <g id="patch_7">
     <path d="M 107.712188 565.6707 
L 793.675313 565.6707 
Q 796.075313 565.6707 796.075313 563.2707 
L 796.075313 529.2432 
Q 796.075313 526.8432 793.675313 526.8432 
L 107.712188 526.8432 
Q 105.312188 526.8432 105.312188 529.2432 
L 105.312188 563.2707 
Q 105.312188 565.6707 107.712188 565.6707 
z
" style="fill:#4c4c4c;opacity:0.5;stroke:#4c4c4c;stroke-linejoin:miter;"/>
    </g>
    <g id="patch_8">
     <path d="M 105.712188 563.6707 
L 791.675313 563.6707 
Q 794.075313 563.6707 794.075313 561.2707 
L 794.075313 527.2432 
Q 794.075313 524.8432 791.675313 524.8432 
L 105.712188 524.8432 
Q 103.312188 524.8432 103.312188 527.2432 
L 103.312188 561.2707 
Q 103.312188 563.6707 105.712188 563.6707 
z
" style="fill:#ffffff;stroke:#cccccc;stroke-linejoin:miter;"/>
    </g>
    <g id="line2d_28"/>
    <g id="line2d_29">
     <g>
      <use style="fill:#0000ff;stroke:#0000ff;" x="120.112188" xlink:href="#m32f3fd5a5f" y="534.561325"/>
     </g>
    </g>
    <g id="text_17">
     <!-- h,Q misurate -->
     <g transform="translate(141.712188 538.761325)scale(0.12 -0.12)">
      <defs>
       <path d="M 750 794 
L 1409 794 
L 1409 256 
L 897 -744 
L 494 -744 
L 750 256 
L 750 794 
z
" id="DejaVuSans-2c" transform="scale(0.015625)"/>
       <path d="M 2522 4238 
Q 1834 4238 1429 3725 
Q 1025 3213 1025 2328 
Q 1025 1447 1429 934 
Q 1834 422 2522 422 
Q 3209 422 3611 934 
Q 4013 1447 4013 2328 
Q 4013 3213 3611 3725 
Q 3209 4238 2522 4238 
z
M 3406 84 
L 4238 -825 
L 3475 -825 
L 2784 -78 
Q 2681 -84 2626 -87 
Q 2572 -91 2522 -91 
Q 1538 -91 948 567 
Q 359 1225 359 2328 
Q 359 3434 948 4092 
Q 1538 4750 2522 4750 
Q 3503 4750 4090 4092 
Q 4678 3434 4678 2328 
Q 4678 1516 4351 937 
Q 4025 359 3406 84 
z
" id="DejaVuSans-51" transform="scale(0.015625)"/>
      </defs>
      <use xlink:href="#DejaVuSans-68"/>
      <use x="63.378906" xlink:href="#DejaVuSans-2c"/>
      <use x="95.166016" xlink:href="#DejaVuSans-51"/>
      <use x="173.876953" xlink:href="#DejaVuSans-20"/>
      <use x="205.664062" xlink:href="#DejaVuSans-6d"/>
      <use x="303.076172" xlink:href="#DejaVuSans-69"/>
      <use x="330.859375" xlink:href="#DejaVuSans-73"/>
      <use x="382.958984" xlink:href="#DejaVuSans-75"/>
      <use x="446.337891" xlink:href="#DejaVuSans-72"/>
      <use x="487.451172" xlink:href="#DejaVuSans-61"/>
      <use x="548.730469" xlink:href="#DejaVuSans-74"/>
      <use x="587.939453" xlink:href="#DejaVuSans-65"/>
     </g>
    </g>
    <g id="line2d_30">
     <path d="M 108.112188 552.175075 
L 132.112188 552.175075 
" style="fill:none;stroke:#ff0000;stroke-linecap:square;stroke-width:1.5;"/>
    </g>
    <g id="line2d_31"/>
    <g id="text_18">
     <!-- Scala di deflusso di magra-morbida -->
     <g transform="translate(141.712188 556.375075)scale(0.12 -0.12)">
      <defs>
       <path d="M 3116 1747 
Q 3116 2381 2855 2742 
Q 2594 3103 2138 3103 
Q 1681 3103 1420 2742 
Q 1159 2381 1159 1747 
Q 1159 1113 1420 752 
Q 1681 391 2138 391 
Q 2594 391 2855 752 
Q 3116 1113 3116 1747 
z
M 1159 2969 
Q 1341 3281 1617 3432 
Q 1894 3584 2278 3584 
Q 2916 3584 3314 3078 
Q 3713 2572 3713 1747 
Q 3713 922 3314 415 
Q 2916 -91 2278 -91 
Q 1894 -91 1617 61 
Q 1341 213 1159 525 
L 1159 0 
L 581 0 
L 581 4863 
L 1159 4863 
L 1159 2969 
z
" id="DejaVuSans-62" transform="scale(0.015625)"/>
      </defs>
      <use xlink:href="#DejaVuSans-53"/>
      <use x="63.476562" xlink:href="#DejaVuSans-63"/>
      <use x="118.457031" xlink:href="#DejaVuSans-61"/>
      <use x="179.736328" xlink:href="#DejaVuSans-6c"/>
      <use x="207.519531" xlink:href="#DejaVuSans-61"/>
      <use x="268.798828" xlink:href="#DejaVuSans-20"/>
      <use x="300.585938" xlink:href="#DejaVuSans-64"/>
      <use x="364.0625" xlink:href="#DejaVuSans-69"/>
      <use x="391.845703" xlink:href="#DejaVuSans-20"/>
      <use x="423.632812" xlink:href="#DejaVuSans-64"/>
      <use x="487.109375" xlink:href="#DejaVuSans-65"/>
      <use x="548.632812" xlink:href="#DejaVuSans-66"/>
      <use x="583.837891" xlink:href="#DejaVuSans-6c"/>
      <use x="611.621094" xlink:href="#DejaVuSans-75"/>
      <use x="675" xlink:href="#DejaVuSans-73"/>
      <use x="727.099609" xlink:href="#DejaVuSans-73"/>
      <use x="779.199219" xlink:href="#DejaVuSans-6f"/>
      <use x="840.380859" xlink:href="#DejaVuSans-20"/>
      <use x="872.167969" xlink:href="#DejaVuSans-64"/>
      <use x="935.644531" xlink:href="#DejaVuSans-69"/>
      <use x="963.427734" xlink:href="#DejaVuSans-20"/>
      <use x="995.214844" xlink:href="#DejaVuSans-6d"/>
      <use x="1092.626953" xlink:href="#DejaVuSans-61"/>
      <use x="1153.90625" xlink:href="#DejaVuSans-67"/>
      <use x="1217.382812" xlink:href="#DejaVuSans-72"/>
      <use x="1258.496094" xlink:href="#DejaVuSans-61"/>
      <use x="1319.775391" xlink:href="#DejaVuSans-2d"/>
      <use x="1355.859375" xlink:href="#DejaVuSans-6d"/>
      <use x="1453.271484" xlink:href="#DejaVuSans-6f"/>
      <use x="1514.453125" xlink:href="#DejaVuSans-72"/>
      <use x="1555.566406" xlink:href="#DejaVuSans-62"/>
      <use x="1619.042969" xlink:href="#DejaVuSans-69"/>
      <use x="1646.826172" xlink:href="#DejaVuSans-64"/>
      <use x="1710.302734" xlink:href="#DejaVuSans-61"/>
     </g>
    </g>
    <g id="line2d_32">
     <path d="M 378.303438 534.561325 
L 402.303438 534.561325 
" style="fill:none;stroke:#008000;stroke-linecap:square;stroke-width:1.5;"/>
    </g>
    <g id="line2d_33"/>
    <g id="text_19">
     <!-- Scala di deflusso di piena -->
     <g transform="translate(411.903438 538.761325)scale(0.12 -0.12)">
      <defs>
       <path d="M 1159 525 
L 1159 -1331 
L 581 -1331 
L 581 3500 
L 1159 3500 
L 1159 2969 
Q 1341 3281 1617 3432 
Q 1894 3584 2278 3584 
Q 2916 3584 3314 3078 
Q 3713 2572 3713 1747 
Q 3713 922 3314 415 
Q 2916 -91 2278 -91 
Q 1894 -91 1617 61 
Q 1341 213 1159 525 
z
M 3116 1747 
Q 3116 2381 2855 2742 
Q 2594 3103 2138 3103 
Q 1681 3103 1420 2742 
Q 1159 2381 1159 1747 
Q 1159 1113 1420 752 
Q 1681 391 2138 391 
Q 2594 391 2855 752 
Q 3116 1113 3116 1747 
z
" id="DejaVuSans-70" transform="scale(0.015625)"/>
      </defs>
      <use xlink:href="#DejaVuSans-53"/>
      <use x="63.476562" xlink:href="#DejaVuSans-63"/>
      <use x="118.457031" xlink:href="#DejaVuSans-61"/>
      <use x="179.736328" xlink:href="#DejaVuSans-6c"/>
      <use x="207.519531" xlink:href="#DejaVuSans-61"/>
      <use x="268.798828" xlink:href="#DejaVuSans-20"/>
      <use x="300.585938" xlink:href="#DejaVuSans-64"/>
      <use x="364.0625" xlink:href="#DejaVuSans-69"/>
      <use x="391.845703" xlink:href="#DejaVuSans-20"/>
      <use x="423.632812" xlink:href="#DejaVuSans-64"/>
      <use x="487.109375" xlink:href="#DejaVuSans-65"/>
      <use x="548.632812" xlink:href="#DejaVuSans-66"/>
      <use x="583.837891" xlink:href="#DejaVuSans-6c"/>
      <use x="611.621094" xlink:href="#DejaVuSans-75"/>
      <use x="675" xlink:href="#DejaVuSans-73"/>
      <use x="727.099609" xlink:href="#DejaVuSans-73"/>
      <use x="779.199219" xlink:href="#DejaVuSans-6f"/>
      <use x="840.380859" xlink:href="#DejaVuSans-20"/>
      <use x="872.167969" xlink:href="#DejaVuSans-64"/>
      <use x="935.644531" xlink:href="#DejaVuSans-69"/>
      <use x="963.427734" xlink:href="#DejaVuSans-20"/>
      <use x="995.214844" xlink:href="#DejaVuSans-70"/>
      <use x="1058.691406" xlink:href="#DejaVuSans-69"/>
      <use x="1086.474609" xlink:href="#DejaVuSans-65"/>
      <use x="1147.998047" xlink:href="#DejaVuSans-6e"/>
      <use x="1211.376953" xlink:href="#DejaVuSans-61"/>
     </g>
    </g>
    <g id="line2d_34">
     <path d="M 378.303438 552.175075 
L 402.303438 552.175075 
" style="fill:none;stroke:#ff0000;stroke-dasharray:7.4,3.2;stroke-dashoffset:0;stroke-width:2;"/>
    </g>
    <g id="text_20">
     <!-- Separazione fra tratto di magra-morbida e piena hs=1,7300 m -->
     <g transform="translate(411.903438 556.375075)scale(0.12 -0.12)">
      <defs>
       <path d="M 353 3500 
L 3084 3500 
L 3084 2975 
L 922 459 
L 3084 459 
L 3084 0 
L 275 0 
L 275 525 
L 2438 3041 
L 353 3041 
L 353 3500 
z
" id="DejaVuSans-7a" transform="scale(0.015625)"/>
       <path d="M 525 4666 
L 3525 4666 
L 3525 4397 
L 1831 0 
L 1172 0 
L 2766 4134 
L 525 4134 
L 525 4666 
z
" id="DejaVuSans-37" transform="scale(0.015625)"/>
      </defs>
      <use xlink:href="#DejaVuSans-53"/>
      <use x="63.476562" xlink:href="#DejaVuSans-65"/>
      <use x="125" xlink:href="#DejaVuSans-70"/>
      <use x="188.476562" xlink:href="#DejaVuSans-61"/>
      <use x="249.755859" xlink:href="#DejaVuSans-72"/>
      <use x="290.869141" xlink:href="#DejaVuSans-61"/>
      <use x="352.148438" xlink:href="#DejaVuSans-7a"/>
      <use x="404.638672" xlink:href="#DejaVuSans-69"/>
      <use x="432.421875" xlink:href="#DejaVuSans-6f"/>
      <use x="493.603516" xlink:href="#DejaVuSans-6e"/>
      <use x="556.982422" xlink:href="#DejaVuSans-65"/>
      <use x="618.505859" xlink:href="#DejaVuSans-20"/>
      <use x="650.292969" xlink:href="#DejaVuSans-66"/>
      <use x="685.498047" xlink:href="#DejaVuSans-72"/>
      <use x="726.611328" xlink:href="#DejaVuSans-61"/>
      <use x="787.890625" xlink:href="#DejaVuSans-20"/>
      <use x="819.677734" xlink:href="#DejaVuSans-74"/>
      <use x="858.886719" xlink:href="#DejaVuSans-72"/>
      <use x="900" xlink:href="#DejaVuSans-61"/>
      <use x="961.279297" xlink:href="#DejaVuSans-74"/>
      <use x="1000.488281" xlink:href="#DejaVuSans-74"/>
      <use x="1039.697266" xlink:href="#DejaVuSans-6f"/>
      <use x="1100.878906" xlink:href="#DejaVuSans-20"/>
      <use x="1132.666016" xlink:href="#DejaVuSans-64"/>
      <use x="1196.142578" xlink:href="#DejaVuSans-69"/>
      <use x="1223.925781" xlink:href="#DejaVuSans-20"/>
      <use x="1255.712891" xlink:href="#DejaVuSans-6d"/>
      <use x="1353.125" xlink:href="#DejaVuSans-61"/>
      <use x="1414.404297" xlink:href="#DejaVuSans-67"/>
      <use x="1477.880859" xlink:href="#DejaVuSans-72"/>
      <use x="1518.994141" xlink:href="#DejaVuSans-61"/>
      <use x="1580.273438" xlink:href="#DejaVuSans-2d"/>
      <use x="1616.357422" xlink:href="#DejaVuSans-6d"/>
      <use x="1713.769531" xlink:href="#DejaVuSans-6f"/>
      <use x="1774.951172" xlink:href="#DejaVuSans-72"/>
      <use x="1816.064453" xlink:href="#DejaVuSans-62"/>
      <use x="1879.541016" xlink:href="#DejaVuSans-69"/>
      <use x="1907.324219" xlink:href="#DejaVuSans-64"/>
      <use x="1970.800781" xlink:href="#DejaVuSans-61"/>
      <use x="2032.080078" xlink:href="#DejaVuSans-20"/>
      <use x="2063.867188" xlink:href="#DejaVuSans-65"/>
      <use x="2125.390625" xlink:href="#DejaVuSans-20"/>
      <use x="2157.177734" xlink:href="#DejaVuSans-70"/>
      <use x="2220.654297" xlink:href="#DejaVuSans-69"/>
      <use x="2248.4375" xlink:href="#DejaVuSans-65"/>
      <use x="2309.960938" xlink:href="#DejaVuSans-6e"/>
      <use x="2373.339844" xlink:href="#DejaVuSans-61"/>
      <use x="2434.619141" xlink:href="#DejaVuSans-20"/>
      <use x="2466.40625" xlink:href="#DejaVuSans-68"/>
      <use x="2529.785156" xlink:href="#DejaVuSans-73"/>
      <use x="2581.884766" xlink:href="#DejaVuSans-3d"/>
      <use x="2665.673828" xlink:href="#DejaVuSans-31"/>
      <use x="2729.296875" xlink:href="#DejaVuSans-2c"/>
      <use x="2761.083984" xlink:href="#DejaVuSans-37"/>
      <use x="2824.707031" xlink:href="#DejaVuSans-33"/>
      <use x="2888.330078" xlink:href="#DejaVuSans-30"/>
      <use x="2951.953125" xlink:href="#DejaVuSans-30"/>
      <use x="3015.576172" xlink:href="#DejaVuSans-20"/>
      <use x="3047.363281" xlink:href="#DejaVuSans-6d"/>
     </g>
    </g>
   </g>
  </g>
 </g>
 <defs>
  <clipPath id="p2d6038a523">
   <rect height="447.312" width="784.3125" x="56.5375" y="26.8"/>
  </clipPath>
 </defs>
</svg>
